<svg width="97" height="97" viewBox="0 0 97 97" fill="none" xmlns="http://www.w3.org/2000/svg">
<path d="M48.5001 22.0869C41.6228 22.0869 36.0259 27.6838 36.0259 34.5611C36.0259 41.4384 41.6228 47.0353 48.5001 47.0353C55.3774 47.0353 60.9743 41.4384 60.9743 34.5611C60.9743 27.6838 55.3774 22.0869 48.5001 22.0869Z" fill="#F23434"/>
<path d="M48.5 0.970001C22.2518 0.970001 0.969971 22.2518 0.969971 48.5C0.969971 74.7482 22.2518 96.03 48.5 96.03C74.7482 96.03 96.03 74.7482 96.03 48.5C96.03 22.2518 74.7482 0.970001 48.5 0.970001ZM70.5869 73.3902C69.2871 73.3902 68.2395 72.3426 68.2395 71.0428C68.2395 60.2758 59.5677 51.8465 48.5 51.8465C37.4323 51.8465 28.7605 60.2758 28.7605 71.0428C28.7605 72.3426 27.7129 73.3902 26.4131 73.3902C25.1133 73.3902 24.0657 72.3426 24.0657 71.0428C24.0657 64.5341 26.6168 58.4813 31.2534 53.9999C33.5329 51.798 36.1907 50.0908 39.091 48.9268C38.121 48.2866 37.1995 47.5397 36.3653 46.7055C33.1255 43.4657 31.3407 39.1492 31.3407 34.5611C31.3407 29.973 33.1255 25.6662 36.3653 22.4167C39.6051 19.1769 43.9216 17.3921 48.5097 17.3921C53.0978 17.3921 57.4046 19.1769 60.6541 22.4167C63.8842 25.6662 65.669 29.973 65.669 34.5611C65.669 39.1492 63.8842 43.456 60.6444 46.7055C59.8005 47.5494 58.8887 48.2866 57.909 48.9268C60.8093 50.0908 63.4768 51.798 65.7466 53.9999C70.3832 58.4813 72.9343 64.5341 72.9343 71.0428C72.9343 72.3329 71.8867 73.3902 70.5869 73.3902Z" fill="#F23434"/>
</svg>
