<svg width="343" height="343" viewBox="0 0 343 343" fill="none" xmlns="http://www.w3.org/2000/svg">
<mask id="mask0_488_16071" style="mask-type:alpha" maskUnits="userSpaceOnUse" x="0" y="0" width="343" height="343">
<rect width="343" height="343" fill="#C4C4C4"/>
</mask>
<g mask="url(#mask0_488_16071)">
<path d="M164.972 273.928L74.0972 186.213L166.982 89.9853C191.193 64.8898 231.181 64.1836 256.277 88.4055C281.37 112.627 282.078 152.605 257.855 177.701L164.972 273.928Z" fill="#F5F5F5"/>
<path d="M164.806 273.928L193.297 244.41C226.005 210.513 225.051 156.537 191.164 123.831L156.293 90.1703C131.208 65.9485 91.2201 66.6546 66.9983 91.7481C42.7865 116.842 43.4826 156.821 68.5781 181.043L164.806 273.928Z" fill="#F5F5F5"/>
<path d="M63.0703 309.747L66.7324 317.382C66.7997 317.522 66.9037 317.642 67.0334 317.728C67.1631 317.814 67.3136 317.864 67.4692 317.872C67.6248 317.88 67.7796 317.845 67.9173 317.773C68.055 317.7 68.1705 317.591 68.2516 317.458L72.3233 310.768C72.6007 310.312 72.991 309.935 73.4564 309.673C73.9218 309.412 74.4467 309.274 74.9805 309.275H75.0995L85.1394 271.474L67.3356 269.63L63.4759 307.606C63.4027 308.33 63.267 309.046 63.0703 309.747Z" fill="#FFAFB1"/>
<path d="M67.3357 269.63L85.1395 271.474L83.7493 276.704L67.1743 271.22L67.3357 269.63Z" fill="#3B4765"/>
<path d="M53.5288 320.271H67.3376C67.6468 320.271 67.9511 320.194 68.2231 320.046C68.495 319.899 68.726 319.686 68.8952 319.428L71.4556 315.039C71.5782 314.844 71.7539 314.688 71.9621 314.59C72.1702 314.491 72.4023 314.454 72.6308 314.482C72.8594 314.511 73.0751 314.604 73.2526 314.751C73.43 314.898 73.5619 315.092 73.6326 315.312L75.3275 320.271H77.0364L78.2167 314.016C78.2165 313.009 77.9219 312.024 77.3692 311.182C76.8164 310.34 76.0296 309.678 75.1055 309.277H74.9865C74.4526 309.277 73.9278 309.414 73.4624 309.675C72.997 309.937 72.6067 310.314 72.3292 310.77L68.2576 317.458C68.1765 317.591 68.0609 317.7 67.9232 317.773C67.7855 317.846 67.6307 317.88 67.4752 317.872C67.3196 317.864 67.1691 317.814 67.0394 317.728C66.9097 317.642 66.8057 317.522 66.7383 317.382L63.0763 309.747C62.5887 311.493 61.7331 313.115 60.567 314.504C59.4008 315.892 57.9511 317.015 56.3152 317.797L53.2887 319.24C53.178 319.294 53.0888 319.384 53.0358 319.495C52.9828 319.606 52.9691 319.732 52.9971 319.851C53.025 319.971 53.0928 320.078 53.1894 320.154C53.286 320.231 53.4057 320.272 53.5288 320.271Z" fill="#FFAFB1"/>
<path d="M68.4049 320.271H52.7056" stroke="#3B4765" stroke-width="1.71912" stroke-miterlimit="10" stroke-linecap="round"/>
<path d="M77.0302 320.271H75.3213" stroke="#3B4765" stroke-width="1.71912" stroke-miterlimit="10" stroke-linecap="round"/>
<path d="M74.9801 308.978H62.9287" stroke="#3B4765" stroke-width="1.71912" stroke-miterlimit="10" stroke-linecap="round"/>
<path d="M134.727 309.747L131.065 317.382C130.997 317.522 130.893 317.642 130.764 317.728C130.634 317.814 130.483 317.864 130.328 317.872C130.172 317.88 130.018 317.845 129.88 317.773C129.742 317.7 129.627 317.591 129.545 317.458L125.474 310.768C125.196 310.312 124.806 309.935 124.341 309.673C123.875 309.412 123.35 309.274 122.817 309.275H122.698L112.658 271.474L130.461 269.63L134.321 307.606C134.394 308.33 134.53 309.046 134.727 309.747Z" fill="#FFAFB1"/>
<path d="M130.461 269.63L112.658 271.474L114.046 276.704L130.631 271.298L130.461 269.63Z" fill="#3B4765"/>
<path d="M144.275 320.271H130.466C130.157 320.271 129.853 320.194 129.581 320.046C129.309 319.899 129.078 319.686 128.908 319.428L126.348 315.039C126.225 314.844 126.05 314.688 125.842 314.59C125.633 314.491 125.401 314.454 125.173 314.482C124.944 314.511 124.729 314.604 124.551 314.751C124.374 314.898 124.242 315.092 124.171 315.312L122.476 320.271H120.767L119.587 314.016C119.587 313.009 119.882 312.024 120.434 311.182C120.987 310.34 121.774 309.678 122.698 309.277H122.817C123.351 309.277 123.876 309.414 124.341 309.675C124.807 309.937 125.197 310.314 125.474 310.77L129.546 317.46C129.627 317.593 129.743 317.702 129.88 317.775C130.018 317.848 130.173 317.882 130.328 317.874C130.484 317.866 130.635 317.816 130.764 317.73C130.894 317.644 130.998 317.524 131.065 317.384L134.727 309.749C135.215 311.495 136.07 313.117 137.237 314.506C138.403 315.894 139.853 317.017 141.488 317.799L144.515 319.242C144.625 319.296 144.713 319.386 144.765 319.497C144.817 319.607 144.83 319.732 144.802 319.852C144.775 319.971 144.707 320.077 144.612 320.153C144.516 320.229 144.397 320.271 144.275 320.271Z" fill="#FFAFB1"/>
<path d="M129.199 320.271H145.176" stroke="#3B4765" stroke-width="1.71912" stroke-miterlimit="10" stroke-linecap="round"/>
<path d="M120.767 320.271H122.476" stroke="#3B4765" stroke-width="1.71912" stroke-miterlimit="10" stroke-linecap="round"/>
<path d="M122.698 308.978H134.727" stroke="#3B4765" stroke-width="1.71912" stroke-miterlimit="10" stroke-linecap="round"/>
<path d="M137.83 268.399C127.265 270.346 116.566 271.48 105.828 271.79L98.1045 209.377L91.1496 271.784C71.5784 271.179 58.377 268.393 58.377 268.393L78.6584 147.253C79.1572 144.26 80.7031 141.542 83.0203 139.584C85.3374 137.625 88.275 136.553 91.309 136.56L106.932 136.594C109.99 136.601 112.944 137.702 115.26 139.699C117.576 141.696 119.101 144.456 119.558 147.479L137.83 268.399Z" fill="#3B4765"/>
<path d="M115.803 140.45C113.549 143.058 107.155 144.687 99.0362 144.687C91.0383 144.687 84.61 142.939 82.2231 140.329" stroke="white" stroke-width="1.3733" stroke-miterlimit="10" stroke-linecap="round"/>
<path d="M119.378 153.286C116.893 153.286 114.505 152.323 112.715 150.599C110.925 148.876 109.873 146.526 109.778 144.043" stroke="white" stroke-width="1.3733" stroke-miterlimit="10" stroke-linecap="round"/>
<path d="M78.4624 153.286C80.9472 153.286 83.3352 152.323 85.1252 150.599C86.9152 148.876 87.9679 146.526 88.0624 144.043" stroke="white" stroke-width="1.3733" stroke-miterlimit="10" stroke-linecap="round"/>
<path d="M105.152 266.334C105.152 266.334 122.705 265.212 137.004 262.94" stroke="white" stroke-width="1.3733" stroke-miterlimit="10" stroke-linecap="round"/>
<path d="M91.7567 266.038C91.7567 266.038 70.3696 265.701 59.3774 262.418" stroke="white" stroke-width="1.3733" stroke-miterlimit="10" stroke-linecap="round"/>
<path d="M79.3241 116.263C76.0818 112.55 74.512 108.846 74.9862 103.939L75.3191 100.606L57.2369 115.896L74.1327 131.23C75.8269 132.723 76.8584 134.829 77.0003 137.083C77.1422 139.337 76.3828 141.555 74.8893 143.249C73.3958 144.943 71.2905 145.975 69.0365 146.116C66.7824 146.258 64.5644 145.499 62.8702 144.006L41.1563 125.423C39.9179 124.364 38.9109 123.062 38.1977 121.597C37.4845 120.132 37.0805 118.536 37.0109 116.909C36.9412 115.281 37.2074 113.656 37.7928 112.136C38.3783 110.615 39.2704 109.232 40.4138 108.071L64.2099 85.0902C69.8593 79.354 76.3804 76.1137 84.4288 76.0935L111.498 76.0289C120.523 76.0067 128.042 78.8536 133.581 87.4387L139.731 87.3701C146.036 87.2995 149.345 93.0196 148.16 99.2158L144.262 127.285C143.902 129.174 142.908 130.884 141.446 132.133C139.983 133.381 138.139 134.095 136.217 134.155C134.295 134.215 132.41 133.618 130.872 132.464C129.334 131.309 128.236 129.664 127.758 127.802L121.261 110.773C121.204 110.62 121.097 110.49 120.957 110.405C120.817 110.319 120.653 110.283 120.491 110.302C120.328 110.321 120.177 110.394 120.06 110.508C119.944 110.623 119.869 110.774 119.849 110.936L116.681 134.448C116.681 138.281 109.216 140.85 99.0366 140.85C88.8575 140.85 81.2207 138.025 81.2207 134.18L79.3241 116.263Z" fill="#F23434"/>
<path d="M128.712 112.853V93.1267C128.712 92.334 128.871 91.5494 129.18 90.8195C129.489 90.0896 129.942 89.4293 130.511 88.8778C131.081 88.3264 131.755 87.895 132.494 87.6093C133.234 87.3236 134.023 87.1895 134.815 87.215" stroke="white" stroke-width="1.3733" stroke-miterlimit="10" stroke-linecap="round"/>
<path d="M111.302 105.469L107.21 101.367C106.95 101.104 106.753 100.786 106.632 100.437C106.511 100.087 106.469 99.7152 106.51 99.3478C106.552 98.9804 106.674 98.6268 106.869 98.3128C107.064 97.9987 107.327 97.7323 107.638 97.5327C107.95 97.3332 108.302 97.2057 108.668 97.1595C109.035 97.1133 109.408 97.1495 109.759 97.2656C110.11 97.3817 110.43 97.5747 110.697 97.8305C110.964 98.0863 111.171 98.3985 111.302 98.7442C111.51 98.1857 111.91 97.7199 112.431 97.4307C112.955 97.1396 113.566 97.0475 114.152 97.1714C114.738 97.2953 115.26 97.6269 115.621 98.105C115.982 98.5831 116.158 99.1756 116.116 99.7732C116.075 100.371 115.819 100.933 115.395 101.357L111.302 105.469Z" fill="white"/>
<path d="M57.8178 115.896L54.4604 113.078" stroke="white" stroke-width="1.3733" stroke-miterlimit="10" stroke-linecap="round"/>
<path d="M113.057 55.564C117.053 55.564 120.292 53.041 120.292 49.9288C120.292 46.8165 117.053 44.2935 113.057 44.2935C109.061 44.2935 105.822 46.8165 105.822 49.9288C105.822 53.041 109.061 55.564 113.057 55.564Z" fill="#3B4765"/>
<path d="M102.315 67.3713C109.256 67.3713 114.883 62.2052 114.883 55.8324C114.883 49.4596 109.256 44.2935 102.315 44.2935C95.3739 44.2935 89.7471 49.4596 89.7471 55.8324C89.7471 62.2052 95.3739 67.3713 102.315 67.3713Z" fill="#3B4765"/>
<path d="M90.626 58.2754C92.5192 53.6919 90.3383 48.4414 85.7547 46.5482C81.1712 44.655 75.9208 46.836 74.0276 51.4195C72.1344 56.0031 74.3153 61.2535 78.8988 63.1467C83.4824 65.0399 88.7328 62.8589 90.626 58.2754Z" fill="#3B4765"/>
<path d="M77.5581 57.7327C79.4647 53.1298 77.2789 47.8529 72.676 45.9463C68.0732 44.0397 62.7962 46.2255 60.8896 50.8284C58.9831 55.4312 61.1689 60.7082 65.7717 62.6147C70.3746 64.5213 75.6515 62.3355 77.5581 57.7327Z" fill="#3B4765"/>
<path d="M59.7149 52.6182L61.3784 54.2817L59.7106 55.9495C59.1684 56.4917 58.4329 56.7964 57.6661 56.7964C56.8993 56.7964 56.1639 56.4917 55.6217 55.9495L53.9582 54.286L55.626 52.6182C56.1682 52.076 56.9036 51.7714 57.6704 51.7714C58.4372 51.7714 59.1726 52.076 59.7149 52.6182Z" fill="#3B4765"/>
<path d="M114.927 57.2631C114.971 57.7993 115.164 58.3124 115.485 58.7441C115.806 59.1757 116.242 59.5085 116.743 59.7044C116.836 59.7598 116.914 59.8379 116.969 59.9315C117.023 60.025 117.054 60.131 117.057 60.2394C117.059 60.3478 117.035 60.4552 116.985 60.5514C116.935 60.6477 116.861 60.7298 116.771 60.7899L114.955 62.0005L115 66.5987C115.005 66.8934 114.951 67.1861 114.842 67.4599C114.733 67.7336 114.57 67.9828 114.363 68.1929C114.157 68.4031 113.91 68.57 113.638 68.684C113.367 68.7979 113.075 68.8565 112.78 68.8565H109.518V78.4323L100.087 89.8118L88.415 78.4323L96.9336 63.7034C96.1687 63.7029 95.4353 63.3987 94.8947 62.8576C94.354 62.3166 94.0503 61.583 94.0503 60.8182V60.4368C94.0487 59.604 94.344 58.7978 94.8831 58.1629C95.4222 57.5281 96.1699 57.1061 96.9921 56.9727C97.8142 56.8394 98.6569 57.0033 99.3691 57.4351C100.081 57.867 100.616 58.5385 100.878 59.3292L100.997 59.6843C100.997 59.6843 105.583 58.5039 107.288 54.1781C107.852 52.8151 107.962 51.3067 107.601 49.8765L109.296 50.0399C110.815 50.1872 112.226 50.8909 113.258 52.0157C114.289 53.1405 114.869 54.607 114.885 56.1332L114.927 57.2631Z" fill="#FFAFB1"/>
<path d="M111.265 59.1838C111.6 59.1838 111.871 58.7791 111.871 58.2799C111.871 57.7807 111.6 57.376 111.265 57.376C110.931 57.376 110.66 57.7807 110.66 58.2799C110.66 58.7791 110.931 59.1838 111.265 59.1838Z" fill="#3B4765"/>
<path d="M109.379 56.3167C109.379 56.3167 110.67 55.4713 111.961 55.5217" stroke="#3B4765" stroke-width="1.32343" stroke-miterlimit="10" stroke-linecap="round"/>
<path d="M99.2383 60.7593C99.2383 60.7593 98.7197 58.7901 96.6738 59.3591" stroke="#3B4765" stroke-width="1.32343" stroke-miterlimit="10" stroke-linecap="round"/>
<path d="M97.4546 60.6565L98.2274 59.6396" stroke="#3B4765" stroke-width="1.32343" stroke-miterlimit="10" stroke-linecap="round"/>
<path d="M114.948 63.9697C114.948 63.9697 113.188 64.0121 112.674 62.6724" stroke="#3B4765" stroke-width="1.32343" stroke-miterlimit="10"/>
<path d="M109.518 68.8522C109.518 68.8522 106.633 68.5899 104.799 66.6328L109.518 72.7362V68.8522Z" fill="#3B4765"/>
<path d="M89.3828 142.658L86.7175 145.952C86.4294 146.308 86.0155 146.538 85.5618 146.595C85.1081 146.653 84.6498 146.533 84.2822 146.261L83.4287 145.619C82.8483 145.19 82.1453 144.958 81.4232 144.958C80.7011 144.958 79.9981 145.19 79.4176 145.619L78.4633 146.324C76.7322 147.706 72.9289 146.356 72.2792 143.921C71.9059 142.508 71.9382 141.066 72.8199 139.228C73.7299 137.329 74.7185 136.558 76.825 136.514L80.1622 136.136C80.8645 136.054 81.5737 136.219 82.1677 136.603L89.1326 141.104C89.2567 141.185 89.3625 141.291 89.4432 141.415C89.5239 141.539 89.5778 141.679 89.6014 141.825C89.6249 141.972 89.6176 142.121 89.58 142.265C89.5424 142.408 89.4752 142.542 89.3828 142.658Z" fill="#FFAFB1"/>
<path d="M84.0342 141.028L88.1098 143.723" stroke="#56303C" stroke-width="1.3733" stroke-miterlimit="10" stroke-linecap="round"/>
<path d="M85.1255 139.68L89.1991 142.375" stroke="#56303C" stroke-width="1.3733" stroke-miterlimit="10" stroke-linecap="round"/>
<path d="M82.5776 142.559L86.8308 145.222" stroke="#56303C" stroke-width="1.3733" stroke-miterlimit="10" stroke-linecap="round"/>
<path d="M91.7087 72.7275C86.7412 72.7275 75.2789 76.0284 72.2363 78.7038L73.6487 78.4153C76.1953 77.8946 78.8217 77.9026 81.365 78.4388C83.9084 78.975 86.3144 80.028 88.434 81.5326L100.094 89.8049L92.0658 81.9865C91.0196 80.9674 90.3434 79.6283 90.1442 78.1814C89.945 76.7345 90.2343 75.2626 90.9662 73.9987L91.7087 72.7275Z" fill="#FFAFB1"/>
<path d="M100.088 89.8009L106.977 81.4882C108.619 79.506 109.518 77.0127 109.519 74.4385V72.7275L125.862 77.5699L124.972 77.463C119.981 76.8675 114.955 78.2598 110.982 81.3389L100.088 89.8009Z" fill="#FFAFB1"/>
<path d="M73.6528 78.4153C76.1988 77.8952 78.8244 77.9034 81.3671 78.4397C83.9097 78.9759 86.3151 80.0286 88.4341 81.5326L100.094 89.8049" stroke="white" stroke-width="1.3733" stroke-miterlimit="10" stroke-linecap="round"/>
<path d="M120.919 77.4224C117.306 77.764 113.866 79.1257 110.998 81.3487L100.103 89.8006" stroke="white" stroke-width="1.3733" stroke-miterlimit="10" stroke-linecap="round"/>
<path d="M100.088 93.8301C101.728 93.8301 103.058 92.5004 103.058 90.8601C103.058 89.2198 101.728 87.8901 100.088 87.8901C98.4479 87.8901 97.1182 89.2198 97.1182 90.8601C97.1182 92.5004 98.4479 93.8301 100.088 93.8301Z" fill="#F29334"/>
<path d="M98.2358 91.0877C98.2382 90.8254 98.2923 90.5662 98.3951 90.3248C98.4979 90.0835 98.6472 89.8648 98.8347 89.6813C99.0221 89.4978 99.2439 89.3531 99.4874 89.2555C99.7309 89.1579 99.9912 89.1093 100.253 89.1125" stroke="white" stroke-width="1.3733" stroke-miterlimit="10" stroke-linecap="round"/>
<path d="M144.208 83.2317L140.546 45.5562" stroke="#56303C" stroke-width="1.88871" stroke-miterlimit="10" stroke-linecap="round"/>
<path d="M156.19 24.3448L121.482 27.7173L123.723 50.7834L158.431 47.4108L156.19 24.3448Z" fill="#EFDFC0"/>
<path d="M132.059 37.5843L135.116 40.6309C135.988 41.3492 136.567 42.6768 136.676 43.8006L136.96 46.7323L130.691 47.3376L130.49 45.0516L126.787 40.8024C126.613 40.5189 126.508 40.1985 126.481 39.867C126.453 39.5355 126.503 39.2022 126.628 38.8937C127.384 37.0213 128.781 33.7689 129.21 32.7056C129.224 32.6727 129.244 32.6432 129.27 32.619C129.296 32.5948 129.326 32.5766 129.36 32.5656C129.394 32.5547 129.429 32.5512 129.465 32.5555C129.5 32.5598 129.534 32.5718 129.564 32.5906H129.58C129.833 32.7462 130.036 32.973 130.161 33.2429C130.287 33.5127 130.33 33.8135 130.286 34.1078L129.882 37.4652C129.854 37.6554 129.899 37.8493 130.007 38.008L130.361 38.5204L130.966 37.6488C131.027 37.564 131.107 37.4939 131.199 37.4435C131.291 37.3932 131.393 37.3639 131.497 37.3577C131.602 37.3515 131.707 37.3687 131.804 37.4078C131.901 37.447 131.988 37.5073 132.059 37.5843Z" fill="white"/>
<path d="M132.467 41.9524C132.402 41.9521 132.338 41.9346 132.282 41.9017C132.226 41.8687 132.18 41.8214 132.148 41.7648L129.971 37.8566C129.929 37.7724 129.921 37.675 129.948 37.5849C129.976 37.4947 130.037 37.4187 130.12 37.3728C130.202 37.3269 130.299 37.3147 130.39 37.3387C130.481 37.3626 130.56 37.421 130.609 37.5015L132.786 41.4097C132.833 41.4942 132.845 41.594 132.818 41.687C132.792 41.7801 132.729 41.8589 132.645 41.906C132.59 41.9359 132.529 41.9519 132.467 41.9524Z" fill="#EFDFC0"/>
<path d="M147.349 36.0994L144.928 39.6787C144.212 40.5504 143.899 41.9647 144.008 43.0886L144.292 46.0202L150.561 45.4149L150.321 43.1229L153.146 38.2402C153.264 37.9291 153.307 37.5946 153.272 37.2638C153.237 36.933 153.125 36.615 152.944 36.3355C151.843 34.6447 149.845 31.7211 149.22 30.7607C149.2 30.731 149.175 30.7058 149.145 30.687C149.114 30.6683 149.081 30.6564 149.045 30.6521C149.01 30.6479 148.974 30.6514 148.941 30.6625C148.907 30.6736 148.876 30.692 148.85 30.7164L148.836 30.7264C148.617 30.9278 148.462 31.1891 148.39 31.4779C148.319 31.7667 148.333 32.0702 148.433 32.3506L149.482 35.5688C149.547 35.7493 149.54 35.9478 149.464 36.1237L149.216 36.6947L148.449 35.9582C148.373 35.8836 148.28 35.8272 148.179 35.7932C148.078 35.7593 147.971 35.7487 147.865 35.7623C147.759 35.7759 147.658 35.8133 147.568 35.8717C147.479 35.9301 147.404 36.008 147.349 36.0994Z" fill="white"/>
<path d="M147.708 40.4715C147.67 40.4712 147.632 40.4651 147.595 40.4533C147.503 40.4233 147.427 40.358 147.383 40.2717C147.339 40.1855 147.331 40.0853 147.361 39.9933L148.745 35.7401C148.759 35.6929 148.782 35.649 148.813 35.6109C148.843 35.5728 148.882 35.5413 148.925 35.5183C148.968 35.4953 149.016 35.4812 149.065 35.477C149.113 35.4727 149.163 35.4783 149.209 35.4935C149.256 35.5087 149.299 35.5331 149.336 35.5653C149.373 35.5975 149.403 35.6369 149.425 35.681C149.446 35.7251 149.458 35.773 149.461 35.822C149.463 35.871 149.456 35.92 149.439 35.9661L148.055 40.2193C148.031 40.2925 147.985 40.3564 147.923 40.4017C147.86 40.447 147.785 40.4714 147.708 40.4715Z" fill="#EFDFC0"/>
<path d="M140.074 40.7017L134.206 35.8594C133.832 35.5486 133.531 35.1578 133.327 34.7156C133.123 34.2735 133.02 33.7913 133.027 33.3044C133.034 32.8174 133.15 32.3382 133.366 31.9019C133.582 31.4655 133.893 31.0831 134.276 30.7828C134.66 30.4824 135.105 30.2718 135.581 30.1662C136.056 30.0607 136.549 30.063 137.023 30.1729C137.498 30.2828 137.942 30.4976 138.322 30.8015C138.703 31.1054 139.01 31.4906 139.222 31.929C139.421 31.1724 139.885 30.5123 140.53 30.0687C141.177 29.6242 141.962 29.4281 142.742 29.5163C143.522 29.6045 144.244 29.9711 144.776 30.5489C145.307 31.1267 145.612 31.8768 145.635 32.6614C145.658 33.4461 145.397 34.2126 144.9 34.8203L140.074 40.7017Z" fill="#FFAFB1"/>
<path d="M148.58 82.6403C148.721 83.5135 148.538 84.4081 148.066 85.1563C147.595 85.9045 146.866 86.4548 146.017 86.7039L143.863 87.3314L144.734 89.575C144.936 90.8905 143.834 92.4421 140.794 92.892C137.753 93.3419 135.132 92.6398 134.943 91.3243L134.18 82.0128C134.003 80.7503 134.286 79.4661 134.978 78.3954C135.67 77.3247 136.725 76.5389 137.949 76.1818L143.554 74.5496C143.997 74.4204 144.463 74.3869 144.921 74.4512C145.378 74.5155 145.817 74.6762 146.208 74.9226C146.598 75.169 146.932 75.4955 147.188 75.8806C147.443 76.2656 147.613 76.7005 147.688 77.1564L148.58 82.6403Z" fill="#FFAFB1"/>
<path d="M138.316 83.0881C138.316 83.0881 141 81.7302 139.872 78.9015C139.872 78.9015 143.653 77.1461 143.302 74.8359" stroke="#56303C" stroke-width="1.3733" stroke-miterlimit="10" stroke-linecap="round"/>
<path d="M140.985 78.3848L141.722 82.4423C141.871 83.2597 142.298 84.0005 142.931 84.539C143.564 85.0774 144.363 85.3802 145.194 85.3961L147.188 85.4344" stroke="#56303C" stroke-width="1.3733" stroke-miterlimit="10" stroke-linecap="round"/>
<path d="M142.366 83.2333L147.44 82.061" stroke="#56303C" stroke-width="1.3733" stroke-miterlimit="10" stroke-linecap="round"/>
<path d="M141.686 80.9028L146.76 79.7285" stroke="#56303C" stroke-width="1.3733" stroke-miterlimit="10" stroke-linecap="round"/>
<path d="M141.007 78.5707L146.082 77.3984" stroke="#56303C" stroke-width="1.3733" stroke-miterlimit="10" stroke-linecap="round"/>
<path d="M204.312 320.271H176.687C175.41 320.271 175.151 318.466 176.378 318.107L181.077 316.735C183.053 316.157 184.868 315.13 186.38 313.734C187.893 312.338 189.062 310.611 189.795 308.688L190.118 307.839L190.346 307.233L201.294 307.591L202.888 310.397L206.429 316.626C206.642 316.996 206.754 317.416 206.753 317.843C206.752 318.271 206.638 318.69 206.424 319.06C206.209 319.429 205.901 319.736 205.531 319.949C205.16 320.161 204.74 320.273 204.312 320.271Z" fill="#3B4765"/>
<path d="M175.504 320.272H207.561" stroke="white" stroke-width="1.71912" stroke-miterlimit="10" stroke-linecap="round"/>
<path d="M190.871 313.24L189.588 311.938C189.448 311.795 189.279 311.684 189.092 311.611C188.906 311.538 188.706 311.506 188.506 311.516C188.306 311.526 188.111 311.579 187.933 311.671C187.755 311.762 187.598 311.891 187.473 312.047L186.993 312.653C186.902 312.767 186.785 312.86 186.653 312.924C186.52 312.988 186.375 313.021 186.229 313.021C186.082 313.021 185.937 312.988 185.804 312.924C185.672 312.86 185.556 312.767 185.464 312.653" stroke="white" stroke-width="1.71912" stroke-miterlimit="10" stroke-linecap="round"/>
<path d="M202.888 310.407C202.888 310.407 197.014 312.941 190.118 307.839L190.346 307.233L201.294 307.591L202.888 310.407Z" fill="#FFAFB1"/>
<path d="M275.959 320.272H250.416C249.984 320.272 249.559 320.169 249.176 319.972C248.792 319.775 248.461 319.489 248.21 319.138C247.96 318.787 247.796 318.381 247.734 317.955C247.671 317.528 247.711 317.092 247.851 316.684L250.119 310.036L251.047 307.323L262.223 306.947C262.411 307.351 262.612 307.732 262.828 308.111C265.036 312.037 268.555 315.06 272.769 316.65L276.373 318.012C276.63 318.107 276.845 318.29 276.981 318.529C277.117 318.767 277.164 319.046 277.115 319.316C277.065 319.585 276.922 319.829 276.711 320.004C276.5 320.179 276.233 320.274 275.959 320.272Z" fill="#3B4765"/>
<path d="M246.844 320.272H277.829" stroke="white" stroke-width="1.71912" stroke-miterlimit="10" stroke-linecap="round"/>
<path d="M267.98 313.24L266.696 311.938C266.556 311.795 266.387 311.684 266.201 311.611C266.014 311.538 265.814 311.506 265.615 311.516C265.415 311.526 265.219 311.579 265.041 311.671C264.863 311.762 264.706 311.891 264.582 312.047L264.104 312.653C264.012 312.767 263.895 312.86 263.763 312.924C263.63 312.988 263.485 313.021 263.338 313.021C263.191 313.021 263.046 312.988 262.913 312.924C262.781 312.86 262.664 312.767 262.572 312.653" stroke="white" stroke-width="1.71912" stroke-miterlimit="10" stroke-linecap="round"/>
<path d="M262.838 308.136C262.838 308.136 253.579 313.079 250.127 310.036L251.055 307.323L262.231 306.947L262.836 308.111L262.838 308.136Z" fill="#FFAFB1"/>
<path d="M265.006 303.946C265.056 304.3 265.032 304.661 264.935 305.005C264.838 305.349 264.67 305.669 264.442 305.944C264.214 306.219 263.931 306.444 263.611 306.603C263.291 306.763 262.942 306.853 262.585 306.87L250.479 307.382C246.893 307.52 244.644 304.999 244.002 301.471L221.979 180.353L208.221 303.131C208.077 304.412 207.455 305.591 206.48 306.433C205.504 307.275 204.247 307.718 202.959 307.673L187.73 307.136C187.255 307.12 186.79 307.005 186.362 306.799C185.934 306.593 185.554 306.301 185.245 305.941C184.936 305.58 184.705 305.16 184.567 304.706C184.429 304.252 184.387 303.774 184.443 303.303L202.574 147.919C202.634 147.402 202.882 146.925 203.271 146.579C203.66 146.232 204.163 146.041 204.684 146.041H242.414L265.006 303.946Z" fill="#3B4765"/>
<path d="M227.048 211.118L221.576 177.787L219.155 176.433C218.796 176.271 218.475 176.036 218.212 175.742C217.95 175.449 217.753 175.103 217.633 174.728" stroke="white" stroke-width="1.71912" stroke-miterlimit="10" stroke-linecap="round"/>
<path d="M220.865 149.498C221.031 148.792 220.594 148.084 219.888 147.918C219.182 147.751 218.475 148.188 218.308 148.894C218.141 149.601 218.579 150.308 219.285 150.475C219.991 150.641 220.698 150.204 220.865 149.498Z" stroke="white" stroke-width="1.3733" stroke-miterlimit="10" stroke-linecap="round"/>
<path d="M210.477 153.775H244.15" stroke="white" stroke-width="1.3733" stroke-miterlimit="10" stroke-linecap="round"/>
<path d="M287.884 126.509C287.878 129.212 286.957 131.835 285.272 133.949C283.586 136.063 281.235 137.545 278.6 138.153C275.965 138.761 273.203 138.459 270.761 137.298C268.32 136.136 266.343 134.182 265.153 131.754L255.295 108.594C255.018 108.263 254.655 108.018 254.245 107.885C253.835 107.752 253.397 107.738 252.979 107.843C252.562 107.948 252.182 108.169 251.885 108.481C251.587 108.792 251.384 109.181 251.298 109.603L247.19 142.208C247.055 143.267 246.538 144.241 245.736 144.947C244.935 145.652 243.903 146.042 242.836 146.041H206.266C204.534 146.04 202.862 145.408 201.563 144.263C200.263 143.119 199.424 141.541 199.204 139.823L195.221 108.898C195.131 108.522 194.947 108.175 194.687 107.89C194.426 107.604 194.098 107.389 193.732 107.264C193.365 107.14 192.974 107.111 192.593 107.179C192.212 107.247 191.855 107.41 191.555 107.654L171.639 123.452L199.053 149.076L189.535 159.005L162.253 140.576C159.903 138.817 157.945 136.591 156.5 134.036C155.056 131.482 154.157 128.656 153.862 125.736C153.566 122.817 153.88 119.868 154.783 117.076C155.685 114.284 157.158 111.709 159.107 109.516L179.73 86.3129C182.452 83.2485 185.776 80.777 189.495 79.0519C193.213 77.3268 197.247 76.385 201.345 76.2852L241.121 75.3147C247.934 75.1469 254.6 77.3125 260.014 81.4524C263.074 83.8113 265.448 86.9462 266.888 90.5318L270.098 98.433L272.35 79.1321L282.777 82.9919L287.797 125.068C287.854 125.546 287.883 126.027 287.884 126.509Z" fill="#F29334"/>
<path d="M169.011 120.568L171.558 123.147L168.515 123.441" stroke="white" stroke-width="1.71912" stroke-linecap="round" stroke-linejoin="round"/>
<path d="M238.346 106.074L234.252 101.972C233.991 101.709 233.792 101.39 233.67 101.04C233.548 100.69 233.506 100.317 233.546 99.9483C233.587 99.5796 233.71 99.2247 233.906 98.9097C234.101 98.5946 234.365 98.3273 234.677 98.1275C234.99 97.9276 235.343 97.8002 235.711 97.7545C236.079 97.7089 236.453 97.7462 236.805 97.8638C237.157 97.9813 237.478 98.1761 237.744 98.4338C238.011 98.6915 238.217 99.0057 238.346 99.3532C238.554 98.7944 238.954 98.3283 239.476 98.0398C239.846 97.8338 240.263 97.7267 240.687 97.729C241.177 97.7292 241.657 97.8746 242.066 98.147C242.474 98.4194 242.792 98.8065 242.981 99.2597C243.17 99.7128 243.22 100.212 243.125 100.693C243.031 101.175 242.796 101.618 242.45 101.966L238.346 106.074Z" fill="white"/>
<path d="M198.036 147.964L193.69 144.062L188.756 158.492L198.036 147.964Z" fill="#FFC184"/>
<path d="M269.793 96.52L267.227 119.152" stroke="white" stroke-width="1.80225" stroke-linecap="round" stroke-linejoin="round"/>
<path d="M284.218 83.8026L286.635 45.8203" stroke="#3B4765" stroke-width="1.88871" stroke-miterlimit="10" stroke-linecap="round"/>
<path d="M306.569 27.082L270.692 24L268.584 48.5431L304.461 51.6251L306.569 27.082Z" fill="#EFDFC0"/>
<path d="M291.821 40.0611C294.615 37.7087 294.974 33.5365 292.622 30.742C290.269 27.9475 286.097 27.5891 283.303 29.9414C280.508 32.2937 280.15 36.466 282.502 39.2605C284.854 42.055 289.027 42.4134 291.821 40.0611Z" fill="#FFC184"/>
<path d="M286.934 31.2188L286.229 31.1582C286.117 31.1484 286.006 31.1799 285.915 31.2468C285.825 31.3137 285.762 31.4114 285.739 31.5214L285.457 32.8551C285.427 32.9953 285.355 33.1233 285.252 33.2223C285.148 33.3213 285.017 33.3867 284.876 33.4099L283.393 33.6581C283.257 33.6805 283.133 33.746 283.037 33.8448C282.942 33.9437 282.881 34.0707 282.864 34.2069L282.807 34.6528C282.793 34.7851 282.825 34.9183 282.899 35.029C282.973 35.1398 283.083 35.2209 283.211 35.2581L283.615 35.3731C283.689 35.3944 283.758 35.4334 283.814 35.4867C283.871 35.5401 283.914 35.6063 283.939 35.6798L284.05 35.9925L284.125 36.2084L283.982 36.0329L283.78 35.7887C283.707 35.698 283.604 35.637 283.489 35.6172L282.406 35.4155C282.332 35.4018 282.262 35.3712 282.201 35.326C282.141 35.2809 282.091 35.2224 282.057 35.1552L281.147 33.3877C281.413 32.3341 281.935 31.3622 282.666 30.5578C283.397 29.7534 284.314 29.1413 285.338 28.7754L284.813 29.6954C284.791 29.7357 284.779 29.7809 284.779 29.8269C284.779 29.8728 284.791 29.9181 284.813 29.9584C284.835 29.9986 284.867 30.0326 284.906 30.0572C284.945 30.0818 284.989 30.0962 285.035 30.099L286.193 30.1615C286.3 30.1673 286.402 30.21 286.482 30.2826L287.087 30.8435C287.137 30.8638 287.176 30.9031 287.197 30.9527C287.218 31.0022 287.218 31.058 287.198 31.1078C287.178 31.1576 287.138 31.1972 287.089 31.218C287.039 31.2388 286.983 31.2391 286.934 31.2188Z" fill="#FFC184"/>
<path d="M287.98 37.877L287.92 38.5913C287.911 38.7035 287.86 38.8084 287.779 38.8859L286.943 39.6304C286.889 39.6785 286.823 39.7106 286.752 39.723C286.68 39.7355 286.607 39.7279 286.54 39.701L286.229 39.5759C286.207 39.5667 286.183 39.5628 286.158 39.5645C286.134 39.5662 286.111 39.5736 286.09 39.5859C286.07 39.5982 286.052 39.6152 286.039 39.6356C286.026 39.6559 286.018 39.679 286.015 39.703L285.902 40.6836C285.894 40.7571 285.902 40.8316 285.927 40.9015C285.951 40.9713 285.991 41.0348 286.043 41.0871L286.493 41.535C286.055 41.4632 285.625 41.3476 285.21 41.19L284.55 40.5161C284.479 40.441 284.438 40.3429 284.433 40.2397L284.403 39.1703L283.239 38.4581C283.137 38.3957 283.054 38.3059 283 38.199C282.946 38.092 282.923 37.9721 282.934 37.8528L283.019 36.8722C283.026 36.7811 283.056 36.6931 283.105 36.6157C283.153 36.5384 283.22 36.4741 283.299 36.4284L283.983 36.0248L284.052 35.9845L284.75 35.5809C284.819 35.5422 284.898 35.5246 284.977 35.5304C285.056 35.5361 285.131 35.5649 285.194 35.6132L286.1 36.3436C286.2 36.4247 286.264 36.5423 286.277 36.6705L286.316 37.0599C286.322 37.1113 286.345 37.1592 286.382 37.1958C286.418 37.2324 286.466 37.2556 286.518 37.2616L287.553 37.3504C287.616 37.3557 287.677 37.3736 287.733 37.4032C287.789 37.4327 287.839 37.4733 287.879 37.5225C287.919 37.5717 287.948 37.6285 287.966 37.6894C287.983 37.7503 287.988 37.8141 287.98 37.877Z" fill="#FFC184"/>
<path d="M291.019 29.3646L290.567 29.4655C290.516 29.478 290.462 29.4814 290.41 29.4756L289.468 29.3949C289.379 29.387 289.29 29.4067 289.213 29.4514L288.126 30.0688C288.086 30.0914 288.042 30.1057 287.996 30.1108C287.95 30.1158 287.904 30.1115 287.86 30.0981C287.816 30.0847 287.775 30.0625 287.74 30.0328C287.705 30.0032 287.676 29.9667 287.656 29.9255L287.454 29.522C287.42 29.455 287.405 29.3802 287.41 29.3053C287.415 29.2304 287.44 29.1583 287.482 29.0963L287.579 28.953C287.596 28.928 287.608 28.8998 287.614 28.8701C287.62 28.8404 287.62 28.8097 287.614 28.7799C287.608 28.7502 287.596 28.7219 287.579 28.6969C287.562 28.6719 287.54 28.6506 287.514 28.6343L287.153 28.3942C287.479 28.375 287.805 28.3791 288.13 28.4063C289.155 28.4961 290.144 28.8243 291.019 29.3646Z" fill="#FFC184"/>
<path d="M294.155 35.5707C294.072 36.5326 293.78 37.4647 293.298 38.3014C292.816 39.138 292.157 39.8588 291.366 40.4131L291.734 39.2469L291.766 38.4499C291.772 38.3131 291.724 38.1794 291.633 38.0767C291.543 37.9741 291.416 37.9104 291.28 37.8991L290.44 37.8265C290.365 37.8197 290.292 37.7972 290.226 37.7603C290.16 37.7235 290.102 37.6732 290.057 37.6126L289.599 37.0073C289.519 36.9014 289.481 36.7701 289.492 36.6381L289.595 35.4476C289.609 35.2857 289.673 35.1321 289.779 35.009C289.886 34.8858 290.028 34.7993 290.186 34.7616L292.204 34.2774C292.345 34.2434 292.494 34.2651 292.619 34.3379L293.907 35.0825C293.991 35.131 294.06 35.2024 294.105 35.2885C294.15 35.3746 294.17 35.4717 294.163 35.5687L294.155 35.5707Z" fill="#FFC184"/>
<path d="M279.632 37.6631L282.084 41.2161C282.812 42.0797 283.139 43.49 283.044 44.6139L282.792 47.5475L276.515 47.0088L276.729 44.7228L273.858 39.8805C273.74 39.569 273.696 39.2343 273.732 38.9031C273.767 38.5719 273.879 38.2536 274.059 37.9738C275.143 36.2709 277.108 33.3332 277.722 32.3587C277.741 32.3287 277.766 32.3033 277.796 32.2842C277.826 32.2651 277.859 32.2527 277.894 32.2479C277.93 32.2431 277.965 32.246 277.999 32.2564C278.033 32.2668 278.064 32.2845 278.091 32.3082L278.103 32.3183C278.323 32.5167 278.481 32.7754 278.555 33.0622C278.63 33.3491 278.62 33.6516 278.525 33.9324L277.516 37.1607C277.453 37.342 277.462 37.5404 277.54 37.7155L277.794 38.2825L278.553 37.538C278.628 37.4663 278.718 37.4121 278.816 37.3791C278.914 37.3461 279.019 37.3352 279.122 37.3471C279.225 37.3591 279.324 37.3936 279.412 37.4482C279.5 37.5028 279.576 37.5762 279.632 37.6631Z" fill="white"/>
<path d="M279.305 42.0395C279.229 42.039 279.155 42.0148 279.093 41.9704C279.031 41.9259 278.984 41.8633 278.96 41.7913L277.529 37.5542C277.514 37.5089 277.508 37.4611 277.511 37.4134C277.514 37.3657 277.527 37.3191 277.548 37.2763C277.57 37.2335 277.599 37.1953 277.635 37.1639C277.671 37.1324 277.713 37.1084 277.758 37.0932C277.804 37.078 277.851 37.0718 277.899 37.0751C277.947 37.0783 277.993 37.091 278.036 37.1122C278.079 37.1335 278.117 37.163 278.149 37.199C278.18 37.235 278.204 37.2769 278.219 37.3222L279.652 41.5593C279.667 41.6047 279.674 41.6527 279.67 41.7006C279.667 41.7485 279.655 41.7953 279.633 41.8383C279.612 41.8812 279.582 41.9195 279.546 41.9509C279.51 41.9824 279.467 42.0063 279.422 42.0213C279.384 42.0343 279.345 42.0405 279.305 42.0395Z" fill="#EFDFC0"/>
<path d="M294.928 38.9782L291.901 42.0591C291.039 42.7855 290.475 44.1192 290.378 45.245L290.125 48.1787L296.402 48.7174L296.58 46.4294L300.236 42.1398C300.407 41.854 300.508 41.532 300.532 41.1998C300.556 40.8676 300.501 40.5344 300.373 40.2271C299.596 38.3648 298.164 35.1265 297.722 34.0693C297.708 34.0365 297.688 34.0071 297.662 33.9832C297.635 33.9592 297.604 33.9412 297.571 33.9304C297.537 33.9197 297.501 33.9164 297.466 33.9209C297.431 33.9253 297.397 33.9374 297.367 33.9563H297.353C297.1 34.1149 296.9 34.3444 296.778 34.616C296.655 34.8876 296.615 35.1894 296.663 35.4836L297.109 38.837C297.14 39.0262 297.098 39.2201 296.992 39.3797L296.642 39.8962L296.023 39.0306C295.961 38.946 295.88 38.8762 295.788 38.8265C295.695 38.7768 295.593 38.7485 295.488 38.7434C295.383 38.7384 295.278 38.7569 295.181 38.7975C295.084 38.8381 294.998 38.8998 294.928 38.9782Z" fill="white"/>
<path d="M294.562 43.3487C294.502 43.3486 294.443 43.3341 294.389 43.3063C294.304 43.2598 294.241 43.1815 294.213 43.0885C294.185 42.9956 294.196 42.8954 294.242 42.81L296.376 38.8857C296.398 38.841 296.428 38.8011 296.465 38.7684C296.502 38.7358 296.546 38.711 296.593 38.6957C296.64 38.6804 296.69 38.6748 296.739 38.6792C296.788 38.6837 296.836 38.6982 296.88 38.7217C296.923 38.7453 296.962 38.7774 296.992 38.8163C297.023 38.8551 297.045 38.8998 297.058 38.9475C297.071 38.9953 297.074 39.0453 297.067 39.0943C297.061 39.1433 297.044 39.1904 297.018 39.2327L294.883 43.1651C294.851 43.2215 294.804 43.2682 294.748 43.3005C294.691 43.3328 294.627 43.3494 294.562 43.3487Z" fill="#EFDFC0"/>
<path d="M289.072 78.3735C289.02 79.3884 288.598 80.349 287.886 81.0739C287.173 81.7987 286.22 82.2377 285.206 82.3079L282.785 82.4773L282.929 84.2791C282.826 85.8024 279.985 86.6821 276.472 86.444C272.959 86.206 271.666 84.7896 271.666 84.7896L273.078 74.1606C273.187 72.7008 273.817 71.329 274.855 70.2965C275.892 69.2641 277.267 68.6403 278.728 68.5394L285.414 68.0754C285.941 68.042 286.469 68.1204 286.964 68.3054C287.459 68.4905 287.909 68.778 288.284 69.1491C288.66 69.5202 288.953 69.9666 289.144 70.4589C289.335 70.9512 289.42 71.4783 289.393 72.0057L289.072 78.3735Z" fill="#FFAFB1"/>
<path d="M277.451 76.3738C277.451 76.3738 280.79 75.5062 280.217 72.058C280.217 72.058 284.884 71.0109 285.059 68.3354" stroke="#3B4765" stroke-width="1.57614" stroke-miterlimit="10" stroke-linecap="round"/>
<path d="M281.591 71.7515L281.429 76.4788C281.396 77.4319 281.694 78.3671 282.272 79.1256C282.85 79.884 283.673 80.4188 284.601 80.6392L286.82 81.1678" stroke="#3B4765" stroke-width="1.57614" stroke-miterlimit="10" stroke-linecap="round"/>
<path d="M281.956 77.524L287.934 77.4453" stroke="#3B4765" stroke-width="1.57614" stroke-miterlimit="10" stroke-linecap="round"/>
<path d="M281.762 74.7432L287.741 74.6646" stroke="#3B4765" stroke-width="1.57614" stroke-miterlimit="10" stroke-linecap="round"/>
<path d="M281.569 71.9635L287.547 71.8848" stroke="#3B4765" stroke-width="1.57614" stroke-miterlimit="10" stroke-linecap="round"/>
<path d="M208.614 50.7316L205.067 47.0514C204.124 46.0582 203.598 44.7408 203.598 43.3712C203.598 42.0016 204.124 40.6842 205.067 39.691C205.524 39.2097 206.074 38.8264 206.684 38.5645C207.294 38.3026 207.95 38.1675 208.614 38.1675C209.278 38.1675 209.934 38.3026 210.544 38.5645C211.154 38.8264 211.704 39.2097 212.161 39.691L213.144 40.7119L214.134 39.693C214.591 39.2118 215.141 38.8285 215.751 38.5666C216.36 38.3047 217.017 38.1696 217.68 38.1696C218.344 38.1696 219 38.3047 219.61 38.5666C220.22 38.8285 220.77 39.2118 221.226 39.693L222.209 40.714L223.192 39.6951C223.648 39.2135 224.198 38.83 224.808 38.568C225.417 38.3059 226.074 38.1708 226.738 38.1708C227.401 38.1708 228.058 38.3059 228.667 38.568C229.277 38.83 229.827 39.2135 230.284 39.6951C231.326 40.7935 232.017 42.1786 232.266 43.6725C232.516 45.1663 232.313 46.7007 231.684 48.0784L226.438 59.5548L208.614 50.7316Z" fill="#3B4765"/>
<path d="M235.243 75.4174C224.752 77.5359 223.68 86.3551 223.68 86.3551C219.706 75.7967 211.024 76.0106 211.024 76.0106V63.5294L210.539 63.5032C209.966 63.4707 209.406 63.323 208.891 63.0688C208.377 62.8146 207.919 62.4592 207.545 62.0239C207.171 61.5885 206.889 61.0822 206.715 60.5351C206.541 59.9881 206.48 59.4117 206.534 58.8404L207.588 47.8381C207.675 46.9086 208.107 46.0452 208.798 45.4168C209.488 44.7885 210.389 44.4403 211.322 44.4404H214.014C214.942 44.4407 215.86 44.6334 216.71 45.0064C217.559 45.3794 218.323 45.9245 218.951 46.6074L219.948 51.708C220.092 52.4468 220.489 53.1123 221.07 53.5908C221.651 54.0693 222.381 54.3309 223.134 54.3309L223.186 54.1292C223.424 53.1905 223.969 52.3581 224.733 51.7636C225.498 51.169 226.438 50.8463 227.407 50.8465H227.589C228.743 50.8465 229.851 51.3052 230.667 52.1217C231.484 52.9383 231.943 54.0458 231.943 55.2005C231.943 56.3553 231.484 57.4628 230.667 58.2794C229.851 59.0959 228.743 59.5546 227.589 59.5546H226.999L235.243 75.4174Z" fill="#FFAFB1"/>
<path d="M211.023 63.5296C211.023 63.5296 216.38 63.6607 219.56 62.208L211.023 69.2314V63.5296Z" fill="#3B4765"/>
<path d="M215.583 54.0834C215.583 54.5696 215.29 54.9651 214.927 54.9651C214.564 54.9651 214.27 54.5616 214.27 54.0834C214.27 53.6052 214.564 53.2017 214.927 53.2017C215.29 53.2017 215.583 53.5971 215.583 54.0834Z" fill="#3B4765"/>
<path d="M209.009 54.0831C209.009 54.5149 208.749 54.8639 208.426 54.8639C208.103 54.8639 207.845 54.5149 207.845 54.0831C207.845 53.6513 208.105 53.3022 208.426 53.3022C208.747 53.3022 209.009 53.6513 209.009 54.0831Z" fill="#3B4765"/>
<path d="M210.377 51.8174V55.7901C210.378 55.9849 210.442 56.1743 210.56 56.3292C210.678 56.4841 210.843 56.596 211.031 56.6476L211.451 56.7626" stroke="#3B4765" stroke-width="1.3733" stroke-miterlimit="10" stroke-linecap="round"/>
<path d="M210.672 58.8912C210.672 58.8912 212.69 59.1494 213.648 57.8359" stroke="#3B4765" stroke-width="1.3733" stroke-miterlimit="10" stroke-linecap="round"/>
<path d="M212.845 49.8457H215.799C216.241 49.8457 216.664 50.0213 216.977 50.3338C217.29 50.6464 217.465 51.0703 217.465 51.5123V51.8169H214.336C213.941 51.8169 213.563 51.6603 213.284 51.3814C213.005 51.1025 212.849 50.7243 212.849 50.3299V49.8457H212.845Z" fill="#3B4765"/>
<path d="M210.791 51.8169H207.981C207.794 51.8169 207.608 51.7801 207.435 51.7085C207.263 51.6369 207.106 51.532 206.973 51.3997C206.841 51.2675 206.736 51.1104 206.665 50.9376C206.593 50.7648 206.556 50.5795 206.556 50.3925V49.8457H208.82C209.343 49.8457 209.844 50.0534 210.214 50.4231C210.584 50.7927 210.791 51.2941 210.791 51.8169Z" fill="#3B4765"/>
<path d="M228.353 53.8588C228.353 53.8588 226.248 53.6732 226.085 55.8765" stroke="#3B4765" stroke-width="1.3733" stroke-miterlimit="10" stroke-linecap="round"/>
<path d="M228.079 55.8726L226.904 54.4521" stroke="#3B4765" stroke-width="1.3733" stroke-miterlimit="10" stroke-linecap="round"/>
<path d="M222.585 83.7441L223.089 86.3529L220.811 84.2001C216.066 79.7128 208.669 76.533 201.89 76.2324L211.024 70.7061L217.311 75.3668C220.054 77.4014 221.936 80.3904 222.585 83.7441Z" fill="#F29334"/>
<path d="M220.811 84.2001C216.065 79.7128 208.372 76.2304 201.595 75.9277" stroke="white" stroke-width="1.3733" stroke-miterlimit="10" stroke-linecap="round"/>
<path d="M223.159 83.7337L222.871 86.3566L225.149 84.2038C229.893 79.7169 236.023 76.9781 242.531 76.4379L249.088 76.3854L235.836 71.6843C234.893 71.3503 233.879 71.2736 232.897 71.4623C231.915 71.651 231.001 72.0981 230.249 72.7577L227.723 74.9771C225.162 77.2242 223.534 80.3476 223.159 83.7337Z" fill="#F29334"/>
<path d="M225.149 84.2C229.893 79.7131 236.023 76.9743 242.531 76.4341" stroke="white" stroke-width="1.3733" stroke-miterlimit="10" stroke-linecap="round"/>
<path d="M225.737 87.4874C225.999 85.8683 224.9 84.3428 223.281 84.0799C221.662 83.8171 220.136 84.9166 219.873 86.5357C219.611 88.1548 220.71 89.6803 222.329 89.9432C223.948 90.206 225.474 89.1065 225.737 87.4874Z" fill="#F23434"/>
<path d="M220.938 87.2327C220.94 86.9704 220.994 86.7112 221.097 86.4698C221.2 86.2285 221.349 86.0098 221.537 85.8263C221.724 85.6428 221.946 85.4981 222.19 85.4005C222.433 85.3029 222.693 85.2543 222.956 85.2575" stroke="white" stroke-width="1.3733" stroke-miterlimit="10" stroke-linecap="round"/>
<path d="M188.756 158.492L198.038 147.964C198.714 147.175 199.654 146.658 200.682 146.509C201.711 146.361 202.759 146.591 203.63 147.157L208.735 150.462C208.891 150.563 209.024 150.697 209.124 150.854C209.224 151.011 209.289 151.187 209.316 151.371C209.342 151.556 209.328 151.743 209.276 151.922C209.223 152.101 209.133 152.266 209.012 152.407L205.285 156.717L199.533 156.515L198.683 157.967C197.761 160.025 193.675 161.244 191.755 160.062L188.756 158.492Z" fill="#F2A8AC"/>
<path d="M206.346 155.748L200.184 153.202" stroke="#3B4765" stroke-width="1.3733" stroke-miterlimit="10" stroke-linecap="round"/>
<path d="M207.766 154.073L201.364 151.428" stroke="#3B4765" stroke-width="1.3733" stroke-miterlimit="10" stroke-linecap="round"/>
<path d="M209.128 152.498L202.252 149.657" stroke="#3B4765" stroke-width="1.3733" stroke-miterlimit="10" stroke-linecap="round"/>
</g>
</svg>
