<svg width="343" height="343" viewBox="0 0 343 343" fill="none" xmlns="http://www.w3.org/2000/svg">
<mask id="mask0_234_6014" style="mask-type:alpha" maskUnits="userSpaceOnUse" x="0" y="0" width="343" height="343">
<rect width="343" height="343" fill="#C4C4C4"/>
</mask>
<g mask="url(#mask0_234_6014)">
<path d="M221.64 100.316C234.43 100.316 244.798 89.9477 244.798 77.1579C244.798 64.3681 234.43 54 221.64 54C208.851 54 198.482 64.3681 198.482 77.1579C198.482 89.9477 208.851 100.316 221.64 100.316Z" fill="#F5F5F5"/>
<path d="M279.679 76.9216H231.264C231.264 72.6286 235.674 69.1487 241.113 69.1487C242.298 69.1465 243.476 69.3166 244.612 69.6537C246.416 67.006 249.185 65.319 252.29 65.319C256.952 65.319 260.857 69.1336 261.879 74.2607C263.67 72.9992 266.561 72.0026 269.822 72.0026C275.268 72.0026 279.679 74.7751 279.679 76.9216Z" fill="#F5F5F5"/>
<path d="M197.974 102.109H147.781C147.781 96.0871 154.446 91.2059 162.665 91.2059C168.029 91.2059 172.73 93.2862 175.351 96.401C177.853 95.6046 180.463 95.202 183.088 95.2077C191.308 95.2096 197.974 99.0998 197.974 102.109Z" fill="#F5F5F5"/>
<path d="M62.9935 282.609C62.9931 284.254 62.4501 285.852 61.4485 287.157C60.447 288.461 59.0429 289.399 57.4541 289.824" stroke="#3B4765" stroke-width="1.79893" stroke-miterlimit="10" stroke-linecap="round"/>
<path d="M208.327 195.86L185.909 266.076C185.48 267.421 184.634 268.595 183.493 269.428C182.353 270.26 180.978 270.709 179.566 270.709H31.8203" stroke="#3B4765" stroke-width="1.79893" stroke-miterlimit="10" stroke-linecap="round"/>
<path d="M197.528 196.152H217.7" stroke="#3B4765" stroke-width="3.59786" stroke-linecap="round" stroke-linejoin="round"/>
<path d="M53.3386 288.748C57.4612 288.748 60.8033 285.406 60.8033 281.283C60.8033 277.161 57.4612 273.819 53.3386 273.819C49.216 273.819 45.874 277.161 45.874 281.283C45.874 285.406 49.216 288.748 53.3386 288.748Z" fill="#3B4765"/>
<path d="M53.3383 286.4C56.1647 286.4 58.456 284.109 58.456 281.283C58.456 278.456 56.1647 276.165 53.3383 276.165C50.5119 276.165 48.2207 278.456 48.2207 281.283C48.2207 284.109 50.5119 286.4 53.3383 286.4Z" stroke="#3B4765" stroke-width="1.79893" stroke-miterlimit="10"/>
<path d="M160.979 288.748C165.102 288.748 168.444 285.406 168.444 281.283C168.444 277.161 165.102 273.819 160.979 273.819C156.857 273.819 153.515 277.161 153.515 281.283C153.515 285.406 156.857 288.748 160.979 288.748Z" fill="#3B4765"/>
<path d="M160.979 286.4C163.805 286.4 166.097 284.109 166.097 281.283C166.097 278.456 163.805 276.165 160.979 276.165C158.153 276.165 155.861 278.456 155.861 281.283C155.861 284.109 158.153 286.4 160.979 286.4Z" stroke="#3B4765" stroke-width="1.79893" stroke-miterlimit="10" stroke-linecap="round"/>
<path d="M118.623 143.882H45.8789V267.769H118.623V143.882Z" fill="#EFDFC0"/>
<path d="M73.8516 267.847V144.131" stroke="#F5EFD9" stroke-width="1.08069" stroke-miterlimit="10"/>
<path d="M68.4141 267.847V144.131" stroke="#F5EFD9" stroke-width="1.08069" stroke-miterlimit="10"/>
<path d="M79.4531 267.847V144.131" stroke="#F5EFD9" stroke-width="1.08069" stroke-miterlimit="10"/>
<path d="M85.0547 267.847V144.131" stroke="#F5EFD9" stroke-width="1.08069" stroke-miterlimit="10"/>
<path d="M90.6572 267.847V144.131" stroke="#F5EFD9" stroke-width="1.08069" stroke-miterlimit="10"/>
<path d="M96.2588 267.847V144.131" stroke="#F5EFD9" stroke-width="1.08069" stroke-miterlimit="10"/>
<path d="M101.861 267.847V144.131" stroke="#F5EFD9" stroke-width="1.08069" stroke-miterlimit="10"/>
<path d="M107.463 267.847V144.131" stroke="#F5EFD9" stroke-width="1.08069" stroke-miterlimit="10"/>
<path d="M51.6855 267.847V144.131" stroke="#F5EFD9" stroke-width="1.08069" stroke-miterlimit="10"/>
<path d="M57.2891 267.847V144.131" stroke="#F5EFD9" stroke-width="1.08069" stroke-miterlimit="10"/>
<path d="M62.8906 267.847V144.131" stroke="#F5EFD9" stroke-width="1.08069" stroke-miterlimit="10"/>
<path d="M118.418 192.748H45.9941" stroke="#F5EFD9" stroke-width="1.08069" stroke-miterlimit="10"/>
<path d="M118.418 187.145H45.9941" stroke="#F5EFD9" stroke-width="1.08069" stroke-miterlimit="10"/>
<path d="M118.418 181.543H45.9941" stroke="#F5EFD9" stroke-width="1.08069" stroke-miterlimit="10"/>
<path d="M118.418 175.941H45.9941" stroke="#F5EFD9" stroke-width="1.08069" stroke-miterlimit="10"/>
<path d="M118.418 170.34H45.9941" stroke="#F5EFD9" stroke-width="1.08069" stroke-miterlimit="10"/>
<path d="M118.418 164.738H45.9941" stroke="#F5EFD9" stroke-width="1.08069" stroke-miterlimit="10"/>
<path d="M118.418 159.136H45.9941" stroke="#F5EFD9" stroke-width="1.08069" stroke-miterlimit="10"/>
<path d="M118.419 153.534H46.3105" stroke="#F5EFD9" stroke-width="1.08069" stroke-miterlimit="10"/>
<path d="M118.418 147.93H45.9941" stroke="#F5EFD9" stroke-width="1.08069" stroke-miterlimit="10"/>
<path d="M118.418 237.596H45.9941" stroke="#F5EFD9" stroke-width="1.08069" stroke-miterlimit="10"/>
<path d="M118.418 243.257H45.9941" stroke="#F5EFD9" stroke-width="1.08069" stroke-miterlimit="10"/>
<path d="M118.418 231.995H45.9941" stroke="#F5EFD9" stroke-width="1.08069" stroke-miterlimit="10"/>
<path d="M118.418 226.393H45.9941" stroke="#F5EFD9" stroke-width="1.08069" stroke-miterlimit="10"/>
<path d="M118.418 259.357L45.9941 259.648" stroke="#F5EFD9" stroke-width="1.08069" stroke-miterlimit="10"/>
<path d="M118.418 265.309H45.9941" stroke="#F5EFD9" stroke-width="1.08069" stroke-miterlimit="10"/>
<path d="M118.418 254.047H45.9941" stroke="#F5EFD9" stroke-width="1.08069" stroke-miterlimit="10"/>
<path d="M118.418 248.443H45.9941" stroke="#F5EFD9" stroke-width="1.08069" stroke-miterlimit="10"/>
<path d="M118.418 220.792H45.9941" stroke="#F5EFD9" stroke-width="1.08069" stroke-miterlimit="10"/>
<path d="M118.418 215.189H45.9941" stroke="#F5EFD9" stroke-width="1.08069" stroke-miterlimit="10"/>
<path d="M118.418 209.587H45.9941" stroke="#F5EFD9" stroke-width="1.08069" stroke-miterlimit="10"/>
<path d="M118.418 203.986H45.9941" stroke="#F5EFD9" stroke-width="1.08069" stroke-miterlimit="10"/>
<path d="M118.419 198.382H46.3105" stroke="#F5EFD9" stroke-width="1.08069" stroke-miterlimit="10"/>
<path d="M113.319 267.847V144.131" stroke="#F5EFD9" stroke-width="1.08069" stroke-miterlimit="10"/>
<path d="M99.4451 173.617C100.421 173.617 101.212 171.672 101.212 169.271C101.212 166.871 100.421 164.925 99.4451 164.925C98.4696 164.925 97.6787 166.871 97.6787 169.271C97.6787 171.672 98.4696 173.617 99.4451 173.617Z" fill="#F29334"/>
<path d="M104.564 177.755C105.849 175.727 106.222 173.66 105.398 173.138C104.574 172.616 102.865 173.836 101.58 175.864C100.295 177.891 99.9219 179.958 100.746 180.48C101.57 181.002 103.28 179.782 104.564 177.755Z" fill="#F29334"/>
<path d="M98.1453 180.484C98.9694 179.962 98.596 177.895 97.3113 175.868C96.0266 173.84 94.3171 172.62 93.4931 173.142C92.669 173.664 93.0424 175.731 94.3271 177.758C95.6118 179.786 97.3213 181.006 98.1453 180.484Z" fill="#F29334"/>
<path d="M104.565 187.33C105.85 185.303 106.223 183.236 105.399 182.714C104.575 182.192 102.866 183.412 101.581 185.439C100.296 187.467 99.9229 189.534 100.747 190.056C101.571 190.578 103.28 189.358 104.565 187.33Z" fill="#F29334"/>
<path d="M98.1444 190.059C98.9684 189.537 98.595 187.47 97.3103 185.442C96.0256 183.415 94.3161 182.195 93.4921 182.717C92.668 183.239 93.0415 185.306 94.3261 187.333C95.6108 189.361 97.3203 190.581 98.1444 190.059Z" fill="#F29334"/>
<path d="M99.4453 171.858V197.601" stroke="#F29334" stroke-width="1.43981" stroke-miterlimit="10" stroke-linecap="round"/>
<path d="M99.4453 163.297V162.013" stroke="#F29334" stroke-width="1.43981" stroke-miterlimit="10" stroke-linecap="round"/>
<path d="M65.2898 180.023C66.2654 180.023 67.0562 178.077 67.0562 175.677C67.0562 173.277 66.2654 171.331 65.2898 171.331C64.3143 171.331 63.5234 173.277 63.5234 175.677C63.5234 178.077 64.3143 180.023 65.2898 180.023Z" fill="#F29334"/>
<path d="M70.0019 184.331C71.298 182.315 71.6844 180.253 70.865 179.726C70.0455 179.199 68.3305 180.407 67.0343 182.423C65.7382 184.439 65.3518 186.501 66.1713 187.028C66.9907 187.554 68.7058 186.347 70.0019 184.331Z" fill="#F29334"/>
<path d="M64.4616 184.43C65.2811 183.903 64.8947 181.842 63.5986 179.826C62.3024 177.809 60.5874 176.602 59.768 177.129C58.9485 177.656 59.3349 179.717 60.631 181.733C61.9271 183.75 63.6422 184.957 64.4616 184.43Z" fill="#F29334"/>
<path d="M70.4099 191.706C71.6946 189.679 72.068 187.612 71.244 187.09C70.4199 186.567 68.7104 187.788 67.4258 189.815C66.1411 191.843 65.7676 193.91 66.5917 194.432C67.4157 194.954 69.1252 193.734 70.4099 191.706Z" fill="#F29334"/>
<path d="M63.9901 194.435C64.8141 193.912 64.4407 191.846 63.156 189.818C61.8713 187.791 60.1618 186.57 59.3378 187.092C58.5137 187.615 58.8872 189.681 60.1719 191.709C61.4565 193.736 63.166 194.957 63.9901 194.435Z" fill="#F29334"/>
<path d="M65.29 178.265V197.626" stroke="#F29334" stroke-width="1.43981" stroke-miterlimit="10" stroke-linecap="round"/>
<path d="M65.29 169.704V168.42" stroke="#F29334" stroke-width="1.43981" stroke-miterlimit="10" stroke-linecap="round"/>
<path d="M83.5213 165.872C84.4968 165.872 85.2877 163.926 85.2877 161.526C85.2877 159.126 84.4968 157.18 83.5213 157.18C82.5457 157.18 81.7549 159.126 81.7549 161.526C81.7549 163.926 82.5457 165.872 83.5213 165.872Z" fill="#F29334"/>
<path d="M88.6404 168.85C89.9251 166.823 90.2985 164.756 89.4744 164.233C88.6504 163.711 86.9409 164.932 85.6562 166.959C84.3715 168.987 83.9981 171.054 84.8221 171.576C85.6462 172.098 87.3557 170.878 88.6404 168.85Z" fill="#F29334"/>
<path d="M88.6394 177.554C89.9241 175.526 90.2975 173.459 89.4735 172.937C88.6494 172.415 86.9399 173.635 85.6552 175.663C84.3706 177.69 83.9971 179.757 84.8212 180.279C85.6452 180.801 87.3547 179.581 88.6394 177.554Z" fill="#F29334"/>
<path d="M82.2205 171.581C83.0446 171.059 82.6712 168.992 81.3865 166.964C80.1018 164.937 78.3923 163.717 77.5683 164.239C76.7442 164.761 77.1176 166.828 78.4023 168.855C79.687 170.883 81.3965 172.103 82.2205 171.581Z" fill="#F29334"/>
<path d="M82.2186 180.284C83.0426 179.762 82.6692 177.695 81.3845 175.668C80.0998 173.64 78.3903 172.42 77.5663 172.942C76.7422 173.464 77.1157 175.531 78.4004 177.559C79.6851 179.586 81.3945 180.807 82.2186 180.284Z" fill="#F29334"/>
<path d="M88.6404 187.129C89.9251 185.101 90.2985 183.035 89.4745 182.512C88.6504 181.99 86.9409 183.211 85.6562 185.238C84.3715 187.265 83.9981 189.332 84.8222 189.855C85.6462 190.377 87.3557 189.156 88.6404 187.129Z" fill="#F29334"/>
<path d="M82.2205 189.859C83.0446 189.337 82.6712 187.27 81.3865 185.243C80.1018 183.215 78.3923 181.995 77.5683 182.517C76.7442 183.039 77.1176 185.106 78.4023 187.134C79.687 189.161 81.3965 190.381 82.2205 189.859Z" fill="#F29334"/>
<path d="M83.5215 164.115V197.401" stroke="#F29334" stroke-width="1.43981" stroke-miterlimit="10" stroke-linecap="round"/>
<path d="M94.0954 143.857H71.2949V153.841H94.0954V143.857Z" fill="white"/>
<path d="M94.0954 257.787H71.2949V267.771H94.0954V257.787Z" fill="white"/>
<path d="M134.869 143.883H118.622V267.771H134.869V143.883Z" fill="#F29334"/>
<path d="M102.802 198.466H61.9898C60.0376 198.466 58.4551 200.048 58.4551 202.001V212.788C58.4551 214.74 60.0376 216.323 61.9898 216.323H102.802C104.754 216.323 106.337 214.74 106.337 212.788V202.001C106.337 200.048 104.754 198.466 102.802 198.466Z" fill="white"/>
<path d="M99.8179 204.151H65.1709V210.702H99.8179V204.151Z" fill="#F29334"/>
<path d="M74.3223 207.937L75.2679 206.991C75.4973 206.762 75.8081 206.634 76.1322 206.634C76.4562 206.634 76.767 206.762 76.9964 206.991L77.787 207.782C77.9478 207.941 78.1654 208.031 78.3922 208.031C78.6189 208.031 78.8365 207.941 78.9974 207.782L79.786 206.991C80.0154 206.762 80.3262 206.634 80.6503 206.634C80.9743 206.634 81.2852 206.762 81.5146 206.991L82.3694 207.846C82.449 207.926 82.5434 207.989 82.6474 208.032C82.7514 208.075 82.8629 208.097 82.9755 208.097C83.0881 208.097 83.1996 208.075 83.3036 208.032C83.4076 207.989 83.5021 207.926 83.5816 207.846L84.4346 206.991C84.664 206.762 84.9748 206.634 85.2989 206.634C85.6229 206.634 85.9338 206.762 86.1632 206.991L86.9537 207.782C87.1145 207.941 87.3321 208.031 87.5589 208.031C87.7856 208.031 88.0032 207.941 88.1641 207.782L88.9527 206.991C89.1821 206.762 89.4929 206.634 89.817 206.634C90.141 206.634 90.4519 206.762 90.6813 206.991L91.816 208.137" stroke="#3B4765" stroke-width="1.43981" stroke-miterlimit="10"/>
<path d="M134.87 143.883C134.87 147.389 131.233 150.234 126.738 150.234C122.243 150.234 118.615 147.397 118.615 143.883" stroke="white" stroke-width="1.79893" stroke-miterlimit="10"/>
<path d="M45.8789 148.311L80.6545 143.857L45.8789 155.195V148.311Z" fill="#56303C"/>
<path d="M74.3223 149.039L75.2679 148.093C75.3812 147.98 75.5159 147.889 75.6642 147.828C75.8125 147.766 75.9716 147.734 76.1322 147.734C76.2928 147.734 76.4518 147.766 76.6001 147.828C76.7484 147.889 76.8831 147.98 76.9964 148.093L77.787 148.882C77.8664 148.962 77.9607 149.025 78.0646 149.068C78.1684 149.111 78.2797 149.133 78.3922 149.133C78.5046 149.133 78.6159 149.111 78.7198 149.068C78.8236 149.025 78.9179 148.962 78.9974 148.882L79.786 148.093C79.8993 147.98 80.034 147.889 80.1823 147.828C80.3306 147.766 80.4897 147.734 80.6503 147.734C80.8109 147.734 80.9699 147.766 81.1182 147.828C81.2665 147.889 81.4012 147.98 81.5146 148.093L82.3694 148.948C82.449 149.028 82.5434 149.091 82.6474 149.134C82.7514 149.177 82.8629 149.199 82.9755 149.199C83.0881 149.199 83.1996 149.177 83.3036 149.134C83.4076 149.091 83.5021 149.028 83.5816 148.948L84.4346 148.093C84.5479 147.98 84.6826 147.889 84.8309 147.828C84.9792 147.766 85.1383 147.734 85.2989 147.734C85.4595 147.734 85.6185 147.766 85.7668 147.828C85.9151 147.889 86.0498 147.98 86.1632 148.093L86.9537 148.882C87.0331 148.962 87.1274 149.025 87.2313 149.068C87.3351 149.111 87.4464 149.133 87.5589 149.133C87.6713 149.133 87.7826 149.111 87.8865 149.068C87.9903 149.025 88.0846 148.962 88.1641 148.882L88.9527 148.093C89.066 147.98 89.2007 147.889 89.349 147.828C89.4974 147.766 89.6564 147.734 89.817 147.734C89.9776 147.734 90.1366 147.766 90.2849 147.828C90.4332 147.889 90.5679 147.98 90.6813 148.093L91.816 149.237" stroke="#3B4765" stroke-width="1.43981" stroke-miterlimit="10"/>
<path d="M83.5215 156.239V155.581" stroke="#F29334" stroke-width="1.43981" stroke-miterlimit="10" stroke-linecap="round"/>
<path d="M179.614 143.573V157.505C179.614 158.742 179.259 159.953 178.591 160.995C177.923 162.036 176.97 162.864 175.845 163.379C175.489 163.543 175.19 163.811 174.99 164.149C174.789 164.486 174.696 164.876 174.723 165.268C174.75 165.659 174.895 166.033 175.139 166.34C175.384 166.647 175.716 166.872 176.091 166.986L176.379 167.073C177.313 167.355 178.132 167.931 178.714 168.714C179.297 169.497 179.612 170.447 179.614 171.423V171.512C179.614 172.485 179.301 173.432 178.722 174.215C178.144 174.998 177.33 175.575 176.399 175.861C175.921 176.009 175.496 176.291 175.175 176.675C174.853 177.058 174.649 177.526 174.587 178.023C174.525 178.519 174.608 179.023 174.826 179.474C175.043 179.924 175.386 180.302 175.813 180.563L176.002 180.678C177.104 181.351 178.014 182.296 178.645 183.422C179.277 184.548 179.609 185.817 179.609 187.108V260.399C179.609 260.444 179.609 260.488 179.609 260.531C179.535 262.545 177.797 264.156 175.662 264.156C174.816 264.169 173.989 263.908 173.303 263.413C172.617 262.917 172.11 262.214 171.857 261.407C171.678 260.766 171.321 260.19 170.828 259.744L170.675 259.61C170.056 259.062 169.26 258.758 168.434 258.754C167.608 258.751 166.808 259.047 166.185 259.589L166.019 259.735C165.525 260.154 165.161 260.705 164.969 261.323C164.441 263.111 162.41 264.442 159.986 264.442C157.561 264.442 155.532 263.118 155.002 261.323C154.811 260.703 154.448 260.149 153.955 259.727L153.718 259.519C153.115 258.99 152.344 258.692 151.542 258.676C150.74 258.66 149.958 258.928 149.334 259.432L148.984 259.716C148.438 260.149 148.036 260.739 147.835 261.407C147.583 262.213 147.078 262.917 146.395 263.413C145.712 263.91 144.887 264.173 144.043 264.164C141.907 264.164 140.169 262.553 140.096 260.539C140.096 260.495 140.096 260.452 140.096 260.406V187.449C140.096 186.185 140.414 184.941 141.021 183.832C141.627 182.723 142.503 181.784 143.568 181.102L144.383 180.58C144.791 180.319 145.118 179.949 145.327 179.513C145.536 179.076 145.619 178.589 145.567 178.108C145.514 177.626 145.328 177.169 145.029 176.788C144.73 176.407 144.331 176.117 143.876 175.95L143.084 175.659C142.208 175.338 141.452 174.756 140.917 173.991C140.383 173.226 140.096 172.316 140.096 171.383C140.096 170.457 140.378 169.554 140.905 168.792C141.432 168.031 142.178 167.448 143.044 167.122L143.506 166.948C143.848 166.818 144.147 166.594 144.367 166.301C144.588 166.008 144.72 165.658 144.749 165.292C144.778 164.927 144.703 164.561 144.532 164.237C144.361 163.912 144.102 163.643 143.784 163.461L143.35 163.215C142.362 162.649 141.541 161.833 140.969 160.848C140.397 159.863 140.096 158.744 140.096 157.605V143.573L142.63 141.958C143.369 141.485 144.228 141.233 145.106 141.233C145.983 141.233 146.842 141.485 147.581 141.958L148.349 142.451C148.836 142.762 149.401 142.928 149.979 142.928C150.557 142.928 151.123 142.762 151.609 142.451L152.366 141.958C153.105 141.485 153.965 141.234 154.842 141.234C155.72 141.234 156.58 141.485 157.319 141.958L158.231 142.54C158.715 142.848 159.277 143.011 159.851 143.011C160.425 143.011 160.987 142.848 161.472 142.54L162.386 141.958C163.125 141.485 163.984 141.233 164.861 141.233C165.739 141.233 166.598 141.485 167.337 141.958L168.105 142.451C168.591 142.762 169.157 142.928 169.735 142.928C170.313 142.928 170.878 142.762 171.365 142.451L172.133 141.958C172.872 141.484 173.731 141.233 174.608 141.233C175.486 141.233 176.345 141.484 177.084 141.958L179.614 143.573Z" fill="#F23434"/>
<path d="M142.618 146.599C143.357 146.126 144.216 145.875 145.094 145.875C145.971 145.875 146.83 146.126 147.569 146.599L148.337 147.092C148.824 147.404 149.39 147.569 149.967 147.569C150.545 147.569 151.111 147.404 151.598 147.092L152.354 146.599C153.094 146.126 153.953 145.875 154.831 145.875C155.708 145.875 156.568 146.126 157.307 146.599L158.219 147.181C158.703 147.489 159.266 147.652 159.84 147.652C160.414 147.652 160.976 147.489 161.46 147.181L162.387 146.599C163.126 146.126 163.985 145.875 164.863 145.875C165.74 145.875 166.599 146.126 167.338 146.599L168.106 147.092C168.593 147.404 169.158 147.569 169.736 147.569C170.314 147.569 170.88 147.404 171.366 147.092L172.134 146.599C172.873 146.126 173.733 145.875 174.61 145.875C175.487 145.875 176.346 146.126 177.086 146.599" stroke="white" stroke-width="1.79893" stroke-miterlimit="10" stroke-linecap="round"/>
<path d="M142.618 151.24C143.358 150.769 144.218 150.519 145.095 150.521C145.973 150.522 146.831 150.775 147.569 151.249L148.337 151.743C148.824 152.054 149.39 152.22 149.967 152.22C150.545 152.22 151.111 152.054 151.598 151.743L152.354 151.249C153.093 150.775 153.952 150.522 154.829 150.521C155.707 150.519 156.567 150.769 157.307 151.24L158.219 151.822C158.703 152.13 159.266 152.293 159.84 152.293C160.414 152.293 160.976 152.13 161.46 151.822L162.374 151.24C163.114 150.769 163.973 150.519 164.851 150.521C165.728 150.522 166.587 150.775 167.325 151.249L168.093 151.743C168.58 152.054 169.145 152.22 169.723 152.22C170.301 152.22 170.867 152.054 171.353 151.743L172.121 151.249C172.86 150.776 173.719 150.525 174.597 150.525C175.474 150.525 176.333 150.776 177.072 151.249" stroke="white" stroke-width="1.79893" stroke-miterlimit="10" stroke-linecap="round"/>
<path d="M182.246 187.129V261.526C182.251 263.05 181.698 264.523 180.692 265.668C179.685 266.812 178.295 267.549 176.783 267.739C175.271 267.929 173.742 267.559 172.483 266.699C171.225 265.839 170.325 264.549 169.953 263.071V263.071C169.537 261.439 167.218 261.439 166.802 263.071C166.46 264.416 165.679 265.609 164.583 266.46C163.487 267.312 162.138 267.773 160.75 267.773H159.362C157.974 267.773 156.625 267.312 155.529 266.46C154.433 265.609 153.652 264.416 153.31 263.071L153.297 263.016C152.881 261.384 150.562 261.384 150.146 263.016L150.133 263.071C149.76 264.549 148.86 265.839 147.602 266.699C146.344 267.559 144.815 267.929 143.303 267.739C141.79 267.549 140.4 266.812 139.394 265.668C138.388 264.523 137.835 263.05 137.84 261.526V187.129C137.84 184.631 138.832 182.235 140.599 180.468C142.366 178.702 144.762 177.709 147.26 177.709H172.839C175.335 177.713 177.727 178.707 179.491 180.473C181.255 182.239 182.246 184.633 182.246 187.129V187.129Z" stroke="#3B4765" stroke-width="1.79893" stroke-miterlimit="10"/>
<path d="M176.558 165.618H143.511C140.37 165.618 137.824 168.164 137.824 171.305V172.022C137.824 175.163 140.37 177.709 143.511 177.709H176.558C179.699 177.709 182.245 175.163 182.245 172.022V171.305C182.245 168.164 179.699 165.618 176.558 165.618Z" stroke="#3B4765" stroke-width="1.79893" stroke-miterlimit="10"/>
<path d="M155.982 126.837H164.089C168.905 126.837 173.523 128.75 176.927 132.155C180.332 135.56 182.245 140.178 182.245 144.993V158.003C182.245 160.023 181.442 161.961 180.014 163.389C178.585 164.818 176.648 165.62 174.627 165.62H145.442C143.422 165.62 141.484 164.818 140.055 163.389C138.627 161.961 137.824 160.023 137.824 158.003V144.993C137.824 142.609 138.294 140.248 139.206 138.045C140.119 135.842 141.456 133.84 143.143 132.154C144.829 130.468 146.83 129.131 149.033 128.219C151.236 127.307 153.597 126.837 155.982 126.837V126.837Z" stroke="#3B4765" stroke-width="1.79893" stroke-miterlimit="10"/>
<path d="M152.834 119.415V128.698C152.834 131.325 156.049 133.453 160.034 133.453C164.019 133.453 167.234 131.325 167.234 128.698V119.415H152.834Z" fill="white" stroke="#3B4765" stroke-width="1.79893" stroke-miterlimit="10"/>
<path d="M160.034 124.169C164.01 124.169 167.234 122.04 167.234 119.414C167.234 116.788 164.01 114.66 160.034 114.66C156.057 114.66 152.834 116.788 152.834 119.414C152.834 122.04 156.057 124.169 160.034 124.169Z" fill="white" stroke="#3B4765" stroke-width="1.79893" stroke-miterlimit="10"/>
<path d="M167.234 119.415V122.607C167.234 125.232 164.009 127.361 160.034 127.361C156.059 127.361 152.834 125.228 152.834 122.607V119.415" stroke="#F23434" stroke-width="1.79893" stroke-miterlimit="10"/>
<path d="M160.034 124.169C164.01 124.169 167.234 122.04 167.234 119.414C167.234 116.788 164.01 114.66 160.034 114.66C156.057 114.66 152.834 116.788 152.834 119.414C152.834 122.04 156.057 124.169 160.034 124.169Z" fill="white" stroke="#F23434" stroke-width="1.79893" stroke-miterlimit="10"/>
<path d="M168.804 160.344H150.32C148.264 160.344 146.598 162.01 146.598 164.066V180.446C146.598 182.501 148.264 184.168 150.32 184.168H168.804C170.86 184.168 172.526 182.501 172.526 180.446V164.066C172.526 162.01 170.86 160.344 168.804 160.344Z" fill="white"/>
<path d="M163.303 173.097C163.314 173.595 163.226 174.091 163.043 174.555C162.86 175.018 162.586 175.441 162.237 175.797C161.889 176.154 161.472 176.437 161.013 176.63C160.553 176.824 160.06 176.923 159.561 176.923C159.062 176.923 158.569 176.824 158.109 176.63C157.65 176.437 157.234 176.154 156.885 175.797C156.536 175.441 156.263 175.018 156.08 174.555C155.897 174.091 155.808 173.595 155.819 173.097C155.819 171.03 159.562 166.15 159.562 166.15C159.562 166.15 163.303 171.03 163.303 173.097Z" fill="#F23434"/>
<path d="M161.739 172.921C161.739 173.23 161.678 173.536 161.56 173.822C161.442 174.107 161.268 174.367 161.05 174.585C160.831 174.804 160.571 174.978 160.286 175.096C160 175.214 159.694 175.275 159.385 175.275" stroke="white" stroke-width="1.79893" stroke-miterlimit="10" stroke-linecap="round"/>
<path d="M107.621 190.095V259.104C107.621 263.887 96.4916 267.764 82.7633 267.764C69.035 267.764 57.9033 263.887 57.9033 259.104V190.095C57.9033 185.312 69.0331 181.435 82.7633 181.435C96.4935 181.435 107.621 185.32 107.621 190.095Z" fill="#F29334"/>
<path d="M82.4714 202.825C68.7431 202.825 57.6133 198.948 57.6133 194.165" stroke="white" stroke-width="1.79893" stroke-miterlimit="10" stroke-linecap="round"/>
<path d="M82.4714 226.327C68.7431 226.327 57.6133 222.448 57.6133 217.666" stroke="white" stroke-width="1.79893" stroke-miterlimit="10" stroke-linecap="round"/>
<path d="M82.4714 249.827C68.7431 249.827 57.6133 245.95 57.6133 241.167" stroke="white" stroke-width="1.79893" stroke-miterlimit="10" stroke-linecap="round"/>
<path d="M75.2621 206.517C65.0495 205.441 57.6133 202.137 57.6133 198.228" stroke="white" stroke-width="1.79893" stroke-miterlimit="10" stroke-linecap="round"/>
<path d="M82.4717 206.887C81.0174 206.887 79.5933 206.843 78.207 206.76" stroke="white" stroke-width="1.79893" stroke-miterlimit="10" stroke-linecap="round"/>
<path d="M62.9106 209.662C59.5953 208.191 57.6152 206.335 57.6152 204.321" stroke="white" stroke-width="1.79893" stroke-miterlimit="10" stroke-linecap="round"/>
<path d="M82.4709 212.979C75.7476 212.979 69.6484 212.049 65.1738 210.538" stroke="white" stroke-width="1.79893" stroke-miterlimit="10" stroke-linecap="round"/>
<path d="M62.9106 241.867C59.5953 240.396 57.6152 238.541 57.6152 236.525" stroke="white" stroke-width="1.79893" stroke-miterlimit="10" stroke-linecap="round"/>
<path d="M82.4709 245.184C75.7476 245.184 69.6484 244.256 65.1738 242.745" stroke="white" stroke-width="1.79893" stroke-miterlimit="10" stroke-linecap="round"/>
<path d="M107.621 190.095C107.621 194.878 96.4916 198.755 82.7633 198.755C69.035 198.755 57.9033 194.878 57.9033 190.095C57.9033 185.313 69.0331 181.443 82.769 181.443C96.5049 181.443 107.621 185.32 107.621 190.095Z" fill="white"/>
<path d="M105.433 190.096C105.433 194.083 95.2825 197.313 82.7627 197.313C70.2428 197.313 60.0908 194.09 60.0908 190.096C60.0908 186.102 70.241 182.888 82.7684 182.888C95.2958 182.888 105.433 186.124 105.433 190.096Z" stroke="#3B4765" stroke-width="1.43981" stroke-miterlimit="10" stroke-linecap="round"/>
<path d="M101.502 189.611C101.502 189.611 93.319 193.539 91.1497 193.539C90.1079 193.539 89.1088 193.125 88.3722 192.389C87.6355 191.652 87.2217 190.653 87.2217 189.611C87.2217 188.569 87.6355 187.57 88.3722 186.834C89.1088 186.097 90.1079 185.683 91.1497 185.683C93.319 185.683 101.502 189.611 101.502 189.611Z" fill="#3B4765"/>
<path d="M92.2232 192.229C93.6687 191.631 94.3552 189.973 93.7564 188.528C93.1577 187.082 91.5004 186.396 90.0549 186.995C88.6093 187.593 87.9229 189.251 88.5217 190.696C89.1204 192.142 90.7776 192.828 92.2232 192.229Z" fill="white"/>
<path d="M101.503 187.864V191.247" stroke="#F29334" stroke-width="1.61937" stroke-miterlimit="10" stroke-linecap="round"/>
<path d="M107.621 211.239V236.77C107.621 240.528 100.746 243.728 91.1387 244.927V219.396C100.746 218.197 107.621 214.997 107.621 211.239Z" fill="#3B4765"/>
<path d="M115.771 186.777L119.541 198.495" stroke="#3B4765" stroke-width="3.59786" stroke-miterlimit="10" stroke-linecap="round"/>
<path d="M122.181 267.77C140.941 267.77 156.149 252.075 156.149 232.715C156.149 213.354 140.941 197.659 122.181 197.659C103.421 197.659 88.2129 213.354 88.2129 232.715C88.2129 252.075 103.421 267.77 122.181 267.77Z" fill="#F29334"/>
<path d="M156.96 219.067C159.134 224.399 160 230.174 159.487 235.909C158.973 241.644 157.096 247.174 154.01 252.035" stroke="white" stroke-width="1.79893" stroke-miterlimit="10" stroke-linecap="round"/>
<path d="M92.2881 214.701C95.7534 208.572 101.009 203.649 107.352 200.592" stroke="white" stroke-width="1.79893" stroke-miterlimit="10" stroke-linecap="round"/>
<path d="M134.776 207.945C142.493 212.325 147.722 220.796 147.722 230.526" stroke="#FFC184" stroke-width="4.49899" stroke-miterlimit="10" stroke-linecap="round"/>
<path d="M126.746 205.014C127.427 205.109 128.098 205.235 128.76 205.392" stroke="#FFC184" stroke-width="4.49899" stroke-miterlimit="10" stroke-linecap="round"/>
<path d="M132.771 260.509C132.771 260.849 132.636 261.174 132.396 261.413C132.156 261.653 131.83 261.788 131.491 261.788H129.481V262.953C129.487 263.125 129.459 263.297 129.398 263.458C129.336 263.619 129.243 263.766 129.124 263.89C129.004 264.014 128.861 264.113 128.703 264.18C128.544 264.248 128.374 264.282 128.201 264.282C128.029 264.282 127.858 264.248 127.7 264.18C127.541 264.113 127.398 264.014 127.279 263.89C127.159 263.766 127.066 263.619 127.005 263.458C126.943 263.297 126.915 263.125 126.922 262.953V261.788H124.91C124.737 261.794 124.566 261.766 124.405 261.705C124.244 261.644 124.097 261.55 123.973 261.431C123.849 261.312 123.75 261.168 123.682 261.01C123.615 260.851 123.58 260.681 123.58 260.508C123.58 260.336 123.615 260.166 123.682 260.007C123.75 259.849 123.849 259.705 123.973 259.586C124.097 259.466 124.244 259.373 124.405 259.312C124.566 259.251 124.737 259.222 124.91 259.229H126.92V257.538C126.933 257.207 127.073 256.894 127.312 256.665C127.55 256.435 127.868 256.307 128.199 256.307C128.53 256.307 128.849 256.435 129.087 256.665C129.326 256.894 129.466 257.207 129.479 257.538V259.229H131.491C131.831 259.229 132.156 259.364 132.396 259.604C132.637 259.844 132.771 260.17 132.771 260.509Z" fill="white"/>
<path d="M130.719 187.773C128.84 193.167 122.141 195.737 122.141 195.737C122.141 195.737 118.489 189.563 120.367 184.169C122.245 178.775 128.944 176.205 128.944 176.205C128.944 176.205 132.597 182.38 130.719 187.773Z" fill="#F29334"/>
<path d="M128.944 176.205C128.944 176.205 132.598 182.38 130.72 187.773C128.842 193.167 122.142 195.737 122.142 195.737L128.944 176.205Z" fill="#F23434"/>
<path d="M87.9012 215.628H46.4023C44.5076 215.628 42.9717 217.164 42.9717 219.059V221.177C42.9717 223.072 44.5076 224.608 46.4023 224.608H87.9012C89.7959 224.608 91.3319 223.072 91.3319 221.177V219.059C91.3319 217.164 89.7959 215.628 87.9012 215.628Z" fill="#3B4765"/>
<path d="M93.3462 224.607H40.9558C35.9099 224.607 31.8193 228.698 31.8193 233.744V258.606C31.8193 263.652 35.9099 267.742 40.9558 267.742H93.3462C98.3921 267.742 102.483 263.652 102.483 258.606V233.744C102.483 228.698 98.3921 224.607 93.3462 224.607Z" fill="white" stroke="#3B4765" stroke-width="1.79893" stroke-miterlimit="10"/>
<path d="M92.8415 265.008H41.461C39.6335 265.007 37.8811 264.281 36.5891 262.989C35.2971 261.696 34.5713 259.944 34.5713 258.116V234.232C34.5713 230.427 37.6559 228.212 41.461 228.212H92.8415C96.6466 228.212 99.7312 230.427 99.7312 234.232V258.116C99.7312 259.944 99.0053 261.696 97.7133 262.989C96.4213 264.281 94.6689 265.007 92.8415 265.008Z" fill="#F23434"/>
<path d="M88.7828 257.914C89.8283 257.914 90.6759 257.066 90.6759 256.02C90.6759 254.975 89.8283 254.127 88.7828 254.127C87.7372 254.127 86.8896 254.975 86.8896 256.02C86.8896 257.066 87.7372 257.914 88.7828 257.914Z" fill="white"/>
<path d="M85.7737 259.468C86.1978 259.468 86.5415 259.125 86.5415 258.7C86.5415 258.276 86.1978 257.933 85.7737 257.933C85.3496 257.933 85.0059 258.276 85.0059 258.7C85.0059 259.125 85.3496 259.468 85.7737 259.468Z" fill="white"/>
<path d="M81.4766 238.175C82.1838 238.175 82.757 237.601 82.757 236.894C82.757 236.187 82.1838 235.614 81.4766 235.614C80.7695 235.614 80.1963 236.187 80.1963 236.894C80.1963 237.601 80.7695 238.175 81.4766 238.175Z" fill="white"/>
<path d="M48.3882 254.816C49.2363 254.816 49.9239 254.128 49.9239 253.28C49.9239 252.432 49.2363 251.745 48.3882 251.745C47.5401 251.745 46.8525 252.432 46.8525 253.28C46.8525 254.128 47.5401 254.816 48.3882 254.816Z" fill="white"/>
<path d="M43.7385 251.294C44.1626 251.294 44.5064 250.95 44.5064 250.526C44.5064 250.102 44.1626 249.758 43.7385 249.758C43.3145 249.758 42.9707 250.102 42.9707 250.526C42.9707 250.95 43.3145 251.294 43.7385 251.294Z" fill="white"/>
<path d="M76.2348 215.337V249.815L73.9105 247.489L71.6505 249.749L69.3924 247.489L67.0681 249.815L64.7438 247.489L62.4838 249.749L60.2257 247.489L57.9014 249.815V215.337H76.2348Z" fill="#F23434"/>
<path d="M71.236 229.667H67.7088L65.9443 232.723L67.7088 235.777H71.236L73.0005 232.723L71.236 229.667Z" fill="white"/>
<path d="M64.8629 233.456H61.3358L59.5713 236.512L61.3358 239.567H64.8629L66.6274 236.512L64.8629 233.456Z" fill="white"/>
<path d="M71.236 237.184H67.7088L65.9443 240.24L67.7088 243.295H71.236L73.0005 240.24L71.236 237.184Z" fill="white"/>
<path d="M57.9014 249.816L59.7737 247.943C59.8936 247.823 60.0561 247.756 60.2257 247.756C60.3952 247.756 60.5578 247.823 60.6777 247.943L62.4838 249.749L64.2918 247.943C64.4117 247.823 64.5742 247.756 64.7438 247.756C64.9133 247.756 65.0759 247.823 65.1958 247.943L67.0681 249.816L68.9404 247.943C69.0603 247.823 69.2228 247.756 69.3924 247.756C69.5619 247.756 69.7245 247.823 69.8444 247.943L71.6505 249.749L73.4585 247.943C73.5784 247.823 73.741 247.756 73.9105 247.756C74.08 247.756 74.2426 247.823 74.3625 247.943L76.2348 249.816" stroke="white" stroke-width="1.26025" stroke-linejoin="round"/>
<path d="M106.338 140.567L45.7624 148.321L43.4456 148.616L32.8397 149.978H32.7905L28.7887 150.49L24.0059 113.103L100.241 103.339C100.586 103.296 100.935 103.391 101.211 103.603C101.487 103.816 101.669 104.128 101.716 104.473L106.338 140.567Z" fill="#F29334"/>
<path d="M101.61 102.582L80.6855 105.33L85.5867 142.654L106.512 139.906L101.61 102.582Z" fill="#F29334"/>
<path d="M80.5794 105.825C81.1317 110.133 68.9125 115.249 53.2892 117.25C37.6659 119.251 24.5522 117.38 24 113.07L80.5794 105.825Z" fill="#F29334"/>
<path d="M65.8712 134.707C64.0594 138.582 59.53 140.471 57.8241 141.061L61.7067 132.759C61.7564 132.637 61.7575 132.501 61.7098 132.379C61.662 132.256 61.569 132.157 61.4501 132.101C61.3311 132.045 61.1953 132.037 61.0706 132.079C60.9459 132.12 60.8419 132.208 60.78 132.324L56.8974 140.628C56.2582 138.941 54.8038 134.255 56.6156 130.378C58.8699 125.555 65.3265 123.81 65.3265 123.81C65.3265 123.81 68.1255 129.884 65.8712 134.707Z" fill="white"/>
<path d="M49.3511 135.328L54.2096 139.502C52.7893 139.606 49.5081 139.608 47.2972 137.713C44.4093 135.236 44.4434 130.455 44.4434 130.455C44.4434 130.455 49.1714 129.698 52.0536 132.168C54.2626 134.059 54.7618 137.303 54.8753 138.725L50.0092 134.551C49.9589 134.503 49.8992 134.465 49.8339 134.441C49.7686 134.416 49.699 134.405 49.6293 134.409C49.5596 134.412 49.4914 134.43 49.4288 134.461C49.3662 134.491 49.3105 134.534 49.2651 134.587C49.2197 134.64 49.1856 134.702 49.1649 134.769C49.1442 134.835 49.1373 134.905 49.1447 134.975C49.152 135.044 49.1735 135.111 49.2076 135.172C49.2418 135.233 49.2881 135.286 49.3435 135.328H49.3511Z" fill="white"/>
<path d="M50.0206 128.245C50.9585 128.245 51.7189 127.485 51.7189 126.547C51.7189 125.609 50.9585 124.849 50.0206 124.849C49.0826 124.849 48.3223 125.609 48.3223 126.547C48.3223 127.485 49.0826 128.245 50.0206 128.245Z" stroke="white" stroke-width="1.79893" stroke-miterlimit="10" stroke-linecap="round"/>
<path d="M56.6898 127.129C57.5548 126.766 57.9622 125.771 57.5996 124.906C57.2371 124.041 56.2419 123.634 55.3768 123.996C54.5118 124.359 54.1045 125.354 54.467 126.219C54.8296 127.084 55.8248 127.491 56.6898 127.129Z" stroke="white" stroke-width="1.79893" stroke-miterlimit="10" stroke-linecap="round"/>
<path d="M52.4005 123.43C53.3384 123.43 54.0988 122.67 54.0988 121.732C54.0988 120.794 53.3384 120.034 52.4005 120.034C51.4625 120.034 50.7021 120.794 50.7021 121.732C50.7021 122.67 51.4625 123.43 52.4005 123.43Z" stroke="white" stroke-width="1.79893" stroke-miterlimit="10" stroke-linecap="round"/>
<path d="M86.0264 142.687L94.9661 134.965L105.808 140.015" stroke="white" stroke-width="1.79893" stroke-miterlimit="10" stroke-linecap="round"/>
<path d="M81.1602 106.115L92.1538 113.016L94.966 134.965" stroke="white" stroke-width="1.79893" stroke-miterlimit="10" stroke-linecap="round"/>
<path d="M101.111 103.628L92.1543 113.016" stroke="white" stroke-width="1.79893" stroke-miterlimit="10" stroke-linecap="round"/>
<path d="M302.667 274.939L302.365 280.728L296.572 280.663L291.22 276.949L298.73 270.708L299.929 272.55C300.602 273.585 301.55 274.413 302.667 274.939Z" fill="#F23434"/>
<path d="M298.729 270.71L291.217 276.953L293.524 278.553L298.729 270.71Z" fill="#F23434"/>
<path d="M318.129 274.315L300.524 288.291C300.227 288.528 299.871 288.681 299.494 288.732C299.118 288.784 298.734 288.732 298.385 288.582C298.035 288.432 297.733 288.191 297.51 287.882C297.287 287.574 297.152 287.211 297.12 286.832L296.565 280.665L302.358 280.73L302.661 274.941C304.011 275.579 305.538 275.744 306.994 275.41L317.494 273.006C317.659 272.967 317.832 272.985 317.985 273.057C318.138 273.13 318.262 273.253 318.336 273.405C318.41 273.558 318.43 273.731 318.393 273.896C318.355 274.062 318.262 274.209 318.129 274.315Z" fill="#F23434"/>
<path d="M299.206 289.329L319.001 273.581" stroke="#3B4765" stroke-width="1.79893" stroke-miterlimit="10" stroke-linecap="round"/>
<path d="M306.98 274.131L305.789 275.143L304.779 273.952C304.646 273.795 304.545 273.614 304.482 273.419C304.42 273.224 304.396 273.018 304.412 272.814C304.429 272.609 304.486 272.41 304.58 272.228C304.673 272.045 304.802 271.883 304.959 271.75V271.75C305.116 271.618 305.297 271.518 305.493 271.456C305.688 271.393 305.894 271.37 306.099 271.388C306.303 271.406 306.502 271.463 306.684 271.558C306.867 271.653 307.028 271.782 307.16 271.939V271.939C307.425 272.255 307.555 272.662 307.521 273.072C307.488 273.483 307.293 273.863 306.98 274.131Z" stroke="#3B4765" stroke-width="1.79893" stroke-miterlimit="10" stroke-linecap="round"/>
<path d="M221.435 274.647L219.871 279.003H213.608L212.602 273.581L212.726 273.463L215.663 270.71L221.435 274.647Z" fill="#F23434"/>
<path d="M215.662 270.71L221.436 274.647L220.366 277.628L215.662 270.71Z" fill="#F23434"/>
<path d="M212.602 273.581L213.608 279.003H219.849L219.702 279.406C219.403 282.02 220.596 285.382 223.04 286.362L226.083 287.466C226.225 287.524 226.343 287.63 226.417 287.766C226.49 287.901 226.514 288.058 226.485 288.209C226.456 288.36 226.375 288.497 226.256 288.595C226.138 288.694 225.989 288.748 225.835 288.748H216.254L206.896 278.3C206.07 277.375 206.455 275.616 207.63 275.219L212.602 273.581Z" fill="#F23434"/>
<path d="M205.763 277.163L216.257 288.75H226.647" stroke="#3B4765" stroke-width="1.79893" stroke-miterlimit="10" stroke-linecap="round"/>
<path d="M221.536 282.65L220.095 282.05L220.694 280.607C220.773 280.418 220.888 280.246 221.033 280.101C221.179 279.956 221.351 279.841 221.541 279.763C221.731 279.685 221.934 279.645 222.139 279.645C222.344 279.646 222.547 279.687 222.737 279.766V279.766C222.926 279.845 223.098 279.96 223.243 280.105C223.388 280.25 223.503 280.423 223.581 280.613C223.659 280.802 223.699 281.006 223.699 281.211C223.698 281.416 223.657 281.619 223.578 281.808V281.808C223.419 282.191 223.114 282.494 222.731 282.652C222.348 282.81 221.918 282.809 221.536 282.65Z" stroke="#3B4765" stroke-width="1.79893" stroke-miterlimit="10" stroke-linecap="round"/>
<path d="M298.729 270.711L286.675 280.734L253.083 222.107L248.612 240.83L223.728 275.851L212.068 268.267L231.699 227.251L236.312 189.133C236.532 187.319 237.409 185.648 238.777 184.436C240.145 183.224 241.909 182.554 243.737 182.554H262.004C262.102 182.554 262.198 182.583 262.279 182.638C262.361 182.692 262.424 182.77 262.462 182.86L298.729 270.711Z" fill="#3B4765"/>
<path d="M253.083 222.108L240.79 199.756C239.426 197.278 238.71 194.496 238.71 191.667" stroke="white" stroke-width="1.79893" stroke-miterlimit="10" stroke-linecap="round"/>
<path d="M286.675 280.729L298.729 270.71" stroke="white" stroke-width="1.79893" stroke-miterlimit="10" stroke-linecap="round"/>
<path d="M212.068 268.263L223.728 275.847" stroke="white" stroke-width="1.79893" stroke-miterlimit="10" stroke-linecap="round"/>
<path d="M261.754 183.565L255.252 193.346" stroke="white" stroke-width="1.79893" stroke-miterlimit="10" stroke-linecap="round"/>
<path d="M261.51 119.176L254.812 116.995C254.812 116.995 252.951 111.976 253.97 110.347C254.99 108.719 266.119 107.108 266.119 107.108C269.319 106.484 272.099 107.136 272.47 108.66C272.867 110.285 270.39 112.286 266.925 113.129L261.51 119.176Z" fill="#3B4765"/>
<path d="M271.563 118.841H270.618C270.561 118.84 270.504 118.851 270.453 118.875C270.401 118.899 270.355 118.934 270.319 118.977C270.282 119.021 270.256 119.073 270.243 119.128C270.229 119.183 270.228 119.241 270.24 119.297L270.915 122.667C270.96 122.895 270.954 123.13 270.898 123.355C270.841 123.58 270.736 123.791 270.588 123.97C270.441 124.15 270.255 124.294 270.045 124.394C269.835 124.493 269.606 124.545 269.373 124.545H268.142C267.68 124.545 267.237 124.729 266.91 125.056C266.584 125.383 266.4 125.826 266.4 126.288V131.066H248.502C249.427 131.067 250.336 130.821 251.134 130.353C251.932 129.885 252.59 129.212 253.041 128.405L255.955 121.884C255.339 121.733 254.791 121.379 254.399 120.88C254.007 120.381 253.794 119.765 253.794 119.13V119.113C253.793 118.738 253.867 118.367 254.01 118.021C254.153 117.675 254.363 117.36 254.628 117.095C254.893 116.83 255.208 116.62 255.554 116.477C255.9 116.333 256.271 116.259 256.646 116.259H256.975C257.546 116.259 258.106 116.424 258.588 116.732L259.751 117.489C262.877 116.129 261.672 112.227 261.672 112.227C267.785 112.906 269.742 109.44 269.742 109.44L271.995 118.304C272.01 118.368 272.011 118.436 271.996 118.501C271.982 118.566 271.953 118.626 271.911 118.678C271.869 118.73 271.816 118.772 271.756 118.8C271.696 118.828 271.63 118.842 271.563 118.841Z" fill="#FFAFB1"/>
<path d="M268.141 124.544C267.683 124.545 267.243 124.727 266.919 125.051C266.595 125.374 266.412 125.813 266.41 126.271L266.399 129.108L261.671 123.485C261.98 123.819 262.354 124.085 262.771 124.267C263.187 124.449 263.637 124.543 264.092 124.543L268.141 124.544Z" fill="#3B4765"/>
<path d="M266.445 113.99L268.727 113.433L268.826 113.839C268.888 114.093 268.846 114.361 268.711 114.585C268.575 114.808 268.356 114.968 268.102 115.03L265.84 115.581L265.737 115.157C265.676 114.908 265.717 114.646 265.849 114.427C265.982 114.208 266.196 114.051 266.445 113.99Z" fill="#3B4765"/>
<path d="M268.267 116.481C268.257 116.569 268.222 116.653 268.165 116.722C268.109 116.791 268.034 116.842 267.949 116.869C267.864 116.896 267.773 116.898 267.687 116.875C267.601 116.852 267.524 116.804 267.465 116.738C267.405 116.671 267.366 116.589 267.352 116.501C267.338 116.413 267.35 116.323 267.387 116.242C267.423 116.161 267.482 116.091 267.556 116.043C267.631 115.994 267.718 115.968 267.807 115.968C267.936 115.976 268.057 116.034 268.143 116.13C268.229 116.226 268.273 116.352 268.267 116.481Z" fill="#3B4765"/>
<path d="M256.237 118.04C256.458 118.04 256.677 118.084 256.88 118.168C257.084 118.253 257.27 118.377 257.425 118.533C257.581 118.689 257.705 118.874 257.789 119.078C257.874 119.282 257.917 119.501 257.917 119.721" stroke="#3B4765" stroke-width="1.43981" stroke-miterlimit="10" stroke-linecap="round"/>
<path d="M257.449 118.553L256.432 119.503" stroke="#3B4765" stroke-width="1.43981" stroke-miterlimit="10" stroke-linecap="round"/>
<path d="M270.448 120.337C269.791 120.469 268.727 119.874 268.727 119.391" stroke="#3B4765" stroke-width="1.43981" stroke-miterlimit="10"/>
<path d="M269.448 106.748L253.868 114.124L253.747 113.547C253.327 111.553 253.629 109.475 254.599 107.683C255.569 105.89 257.144 104.501 259.043 103.762L263.886 101.882C264.496 101.644 265.172 101.631 265.791 101.846C266.41 102.06 266.933 102.487 267.266 103.051L269.448 106.748Z" fill="#F23434"/>
<path d="M253.868 114.133L273.38 105.127" stroke="#3B4765" stroke-width="1.79893" stroke-miterlimit="10" stroke-linecap="round"/>
<path d="M267.421 103.316L264.461 104.563L265.274 106.575L268.489 105.126L267.421 103.316Z" fill="white"/>
<path d="M240.519 182.548H261.018C261.581 182.548 262.127 182.356 262.566 182.004C263.005 181.651 263.311 181.16 263.433 180.61L269.023 155.457C270.067 150.762 270.016 145.89 268.876 141.218L266.404 131.064H247.17C244.422 131.063 241.72 131.779 239.332 133.141C236.944 134.503 234.953 136.463 233.554 138.829L208.465 181.506C208.141 182.057 207.935 182.669 207.86 183.304C207.786 183.939 207.845 184.582 208.032 185.193C208.22 185.803 208.533 186.368 208.952 186.852C209.37 187.335 209.884 187.725 210.462 187.999L214.674 189.992C215.654 190.456 216.767 190.559 217.816 190.282C218.865 190.005 219.782 189.367 220.406 188.479L238.562 162.711L237.081 178.764C237.036 179.243 237.092 179.726 237.244 180.182C237.396 180.639 237.642 181.058 237.966 181.414C238.289 181.77 238.683 182.055 239.123 182.25C239.562 182.445 240.038 182.547 240.519 182.548Z" fill="#F23434"/>
<path d="M263.471 134.313H265.088" stroke="#3B4765" stroke-width="1.79893" stroke-miterlimit="10" stroke-linecap="round"/>
<path d="M265.088 135.132C265.541 135.132 265.907 134.766 265.907 134.313C265.907 133.861 265.541 133.494 265.088 133.494C264.636 133.494 264.27 133.861 264.27 134.313C264.27 134.766 264.636 135.132 265.088 135.132Z" fill="#F29334"/>
<path d="M263.762 138.087H265.379" stroke="#3B4765" stroke-width="1.79893" stroke-miterlimit="10" stroke-linecap="round"/>
<path d="M265.379 138.899C265.832 138.899 266.198 138.533 266.198 138.08C266.198 137.628 265.832 137.262 265.379 137.262C264.927 137.262 264.561 137.628 264.561 138.08C264.561 138.533 264.927 138.899 265.379 138.899Z" fill="#F29334"/>
<path d="M245.648 149.266L245.067 153.506" stroke="white" stroke-width="1.61937" stroke-miterlimit="10" stroke-linecap="round"/>
<path d="M238.553 162.716L248.06 149.676" stroke="white" stroke-width="1.79893" stroke-miterlimit="10" stroke-linecap="round"/>
<path d="M269.944 154.027H264.598C263.954 154.027 263.433 154.549 263.433 155.192V158.222C263.433 158.865 263.954 159.387 264.598 159.387H269.944C270.587 159.387 271.109 158.865 271.109 158.222V155.192C271.109 154.549 270.587 154.027 269.944 154.027Z" fill="#F5EFD9"/>
<path d="M247.461 131.064L257.326 135.932C260.008 137.253 262.317 139.225 264.044 141.666C265.77 144.108 266.859 146.942 267.211 149.912L267.729 154.286L267.858 134.691" stroke="white" stroke-width="0.901127" stroke-miterlimit="10" stroke-linecap="round"/>
<path d="M267.65 152.792V154.286" stroke="#3B4765" stroke-width="1.79893" stroke-miterlimit="10" stroke-linecap="round"/>
<path d="M264.561 159.387H268.15L267.921 160.418L264.561 159.387Z" fill="#56303C"/>
<path d="M269.543 156.174H265.439V157.112H269.543V156.174Z" fill="#F29334"/>
<path d="M265.144 130.855L266.4 129.731V127.938L268.128 130.397C268.324 130.677 268.444 131.002 268.477 131.342C268.511 131.682 268.455 132.025 268.317 132.337L267.275 134.69L266.404 131.064H262.754L261.04 134.032L247.17 131.064L251.3 125.898C251.58 125.548 251.967 125.301 252.402 125.196C252.836 125.09 253.294 125.131 253.702 125.313L265.144 130.855Z" fill="#F29334"/>
<path d="M261.041 133.742L263.144 130.429" stroke="white" stroke-width="1.61937" stroke-miterlimit="10" stroke-linecap="round"/>
<path d="M208.688 195.391L211.971 195.313C214.975 195.069 217.793 192.35 216.321 189.29C215.697 187.994 213.585 187.123 211.733 186.324C209.819 185.5 208.094 185.322 206.494 186.655L203.035 189.031C202.457 189.426 202.035 190.01 201.842 190.684L199.875 197.099C199.802 197.339 199.785 197.592 199.825 197.84C199.866 198.088 199.963 198.322 200.11 198.526C200.256 198.73 200.448 198.897 200.67 199.015C200.891 199.132 201.137 199.197 201.388 199.204L207.264 199.338C207.632 199.346 207.994 199.25 208.31 199.062C208.626 198.874 208.882 198.6 209.049 198.273L209.214 197.952C209.26 197.862 209.283 197.761 209.28 197.66C209.276 197.559 209.248 197.461 209.196 197.374C209.144 197.287 209.071 197.215 208.983 197.164C208.896 197.113 208.797 197.086 208.696 197.084C208.56 197.081 208.427 197.045 208.307 196.98C208.188 196.914 208.087 196.821 208.011 196.708C207.936 196.595 207.888 196.466 207.874 196.33C207.859 196.195 207.877 196.059 207.926 195.932C207.986 195.777 208.09 195.643 208.226 195.546C208.361 195.45 208.522 195.396 208.688 195.391Z" fill="#FFAFB1"/>
<path d="M203.312 194.574L202.41 197.6C202.367 197.743 202.358 197.895 202.384 198.042C202.409 198.19 202.469 198.329 202.559 198.449C202.648 198.569 202.764 198.667 202.898 198.734C203.032 198.802 203.179 198.837 203.329 198.837H204.04L205.742 198.901H205.532C205.382 198.901 205.235 198.866 205.101 198.799C204.967 198.731 204.851 198.634 204.762 198.514C204.673 198.393 204.613 198.254 204.587 198.107C204.561 197.959 204.57 197.808 204.613 197.664L205.515 194.735" stroke="#3B4765" stroke-width="1.43981" stroke-linecap="round" stroke-linejoin="round"/>
<path d="M212.38 192.303L209.477 193.536C209.136 193.681 208.845 193.923 208.641 194.232C208.437 194.541 208.328 194.903 208.327 195.274" stroke="#3B4765" stroke-width="1.43981" stroke-miterlimit="10" stroke-linecap="round"/>
</g>
</svg>
