<svg width="342" height="241" viewBox="0 0 342 241" fill="none" xmlns="http://www.w3.org/2000/svg">
<mask id="mask0_254_7187" style="mask-type:alpha" maskUnits="userSpaceOnUse" x="0" y="0" width="342" height="241">
<rect width="341.583" height="241" fill="#C4C4C4"/>
</mask>
<g mask="url(#mask0_254_7187)">
<path d="M205.494 98.523H174.646C174.646 94.387 179.16 91.0342 184.728 91.0342C185.72 91.0319 186.708 91.1407 187.675 91.3585C189.524 88.9038 192.304 87.3425 195.414 87.3425C200.981 87.3442 205.494 92.3491 205.494 98.523Z" fill="#F5F5F5"/>
<path d="M178.455 74.7221C186.303 66.9498 186.303 54.3485 178.455 46.5762C170.606 38.8039 157.881 38.8039 150.033 46.5762C142.184 54.3485 142.184 66.9498 150.033 74.7221C157.881 82.4944 170.606 82.4944 178.455 74.7221Z" fill="#F5F5F5"/>
<path d="M157.949 91.8152H113C113 87.869 117.093 84.6686 122.145 84.6686C123.246 84.6657 124.341 84.8224 125.395 85.1339C127.07 82.7019 129.642 81.1455 132.525 81.1455C136.854 81.1455 140.48 84.6556 141.428 89.3687C143.092 88.2095 145.777 87.2918 148.796 87.2918C153.854 87.2918 157.949 89.8389 157.949 91.8152Z" fill="#F5F5F5"/>
<path d="M237.393 153.68L234.599 180.719H206.272L206.762 156.181L199.362 153.446C198.606 153.166 197.94 152.654 197.445 151.971C196.95 151.287 196.648 150.462 196.574 149.595L196.496 148.663C196.482 148.497 196.5 148.329 196.549 148.17C196.598 148.011 196.677 147.865 196.78 147.742C196.883 147.618 197.009 147.519 197.15 147.451C197.29 147.384 197.442 147.349 197.595 147.348H219.814C221.163 147.349 222.499 147.643 223.742 148.213C224.986 148.784 226.113 149.619 227.056 150.67L229.709 153.68H237.393Z" fill="#FFAFB1"/>
<path d="M216.633 171.153V171.249C216.633 171.66 216.559 172.067 216.415 172.447C216.271 172.827 216.06 173.173 215.793 173.464C215.527 173.754 215.21 173.985 214.861 174.142C214.513 174.299 214.139 174.38 213.762 174.38H212.247C213.007 174.38 213.736 174.709 214.274 175.295C214.812 175.881 215.114 176.677 215.114 177.506V177.601C215.114 178.43 214.811 179.225 214.274 179.81C213.736 180.396 213.007 180.725 212.247 180.725H204.41C203.713 180.725 203.044 180.424 202.551 179.886C202.058 179.349 201.781 178.621 201.78 177.861V177.246C201.781 176.486 202.058 175.757 202.551 175.22C203.044 174.682 203.713 174.38 204.41 174.38H202.502C202.156 174.38 201.815 174.306 201.496 174.162C201.177 174.018 200.887 173.807 200.642 173.541C200.398 173.275 200.205 172.959 200.072 172.612C199.94 172.264 199.872 171.891 199.872 171.515V170.9C199.872 170.14 200.149 169.411 200.642 168.874C201.135 168.336 201.804 168.034 202.502 168.034H201.127C200.43 168.034 199.762 167.732 199.269 167.195C198.776 166.658 198.498 165.929 198.498 165.169V164.555C198.498 163.795 198.775 163.066 199.269 162.528C199.762 161.991 200.43 161.689 201.127 161.688H199.905C199.208 161.688 198.539 161.386 198.047 160.849C197.554 160.312 197.277 159.583 197.277 158.823V158.209C197.277 157.449 197.554 156.72 198.047 156.183C198.539 155.645 199.208 155.343 199.905 155.343H209.372C210.132 155.343 210.862 155.672 211.4 156.258C211.938 156.844 212.24 157.639 212.241 158.468V158.564C212.24 158.975 212.166 159.381 212.022 159.76C211.877 160.139 211.666 160.484 211.4 160.774C211.133 161.064 210.817 161.294 210.469 161.451C210.121 161.608 209.748 161.688 209.372 161.688H211.409C212.17 161.688 212.899 162.018 213.437 162.604C213.975 163.19 214.277 163.985 214.277 164.814V164.91C214.276 165.739 213.974 166.533 213.436 167.119C212.899 167.705 212.169 168.034 211.409 168.034H213.762C214.522 168.033 215.251 168.361 215.79 168.946C216.328 169.531 216.631 170.325 216.633 171.153Z" fill="#FFAFB1"/>
<path d="M204.413 174.38H212.25C213.01 174.38 213.74 174.71 214.277 175.296C214.815 175.882 215.117 176.677 215.117 177.506V177.6C215.117 178.095 215.009 178.582 214.802 179.022C214.595 179.462 214.295 179.842 213.927 180.131" stroke="#3B4765" stroke-width="1.72577" stroke-miterlimit="10" stroke-linecap="round"/>
<path d="M202.505 168.028H213.762C214.523 168.028 215.252 168.357 215.79 168.943C216.328 169.53 216.63 170.325 216.63 171.154V171.249C216.63 171.66 216.557 172.067 216.413 172.447C216.269 172.827 216.058 173.172 215.791 173.463C215.525 173.754 215.209 173.984 214.861 174.142C214.512 174.299 214.139 174.38 213.762 174.38H204.132" stroke="#3B4765" stroke-width="1.79893" stroke-miterlimit="10" stroke-linecap="round"/>
<path d="M203.413 161.682H211.413C212.173 161.682 212.903 162.011 213.441 162.597C213.978 163.184 214.28 163.979 214.28 164.808V164.903C214.28 165.732 213.978 166.527 213.44 167.113C212.902 167.698 212.173 168.028 211.413 168.028H202.757" stroke="#3B4765" stroke-width="1.79893" stroke-miterlimit="10" stroke-linecap="round"/>
<path d="M205.453 155.337H209.376C210.137 155.337 210.866 155.667 211.403 156.253C211.941 156.839 212.243 157.634 212.244 158.463V158.558C212.243 159.387 211.941 160.182 211.403 160.767C210.866 161.353 210.136 161.682 209.376 161.682" stroke="#3B4765" stroke-width="1.79893" stroke-miterlimit="10" stroke-linecap="round"/>
<path d="M214.096 165.141C214.236 164.204 213.652 163.32 212.791 163.168C211.931 163.016 211.121 163.652 210.981 164.59C210.841 165.528 211.425 166.411 212.286 166.564C213.146 166.716 213.956 166.079 214.096 165.141Z" stroke="#3B4765" stroke-width="1.79893" stroke-miterlimit="10" stroke-linecap="round"/>
<path d="M211.78 159.726C212.396 159.055 212.396 157.965 211.78 157.294C211.163 156.622 210.164 156.622 209.548 157.294C208.932 157.965 208.932 159.055 209.548 159.726C210.164 160.398 211.163 160.398 211.78 159.726Z" stroke="#3B4765" stroke-width="1.79893" stroke-miterlimit="10" stroke-linecap="round"/>
<path d="M213.54 179.267C214.411 179.267 215.118 178.496 215.118 177.546C215.118 176.596 214.411 175.826 213.54 175.826C212.668 175.826 211.962 176.596 211.962 177.546C211.962 178.496 212.668 179.267 213.54 179.267Z" stroke="#3B4765" stroke-width="1.79893" stroke-miterlimit="10" stroke-linecap="round"/>
<path d="M214.892 172.861C215.814 172.861 216.561 172.047 216.561 171.042C216.561 170.038 215.814 169.223 214.892 169.223C213.97 169.223 213.223 170.038 213.223 171.042C213.223 172.047 213.97 172.861 214.892 172.861Z" stroke="#3B4765" stroke-width="1.79893" stroke-miterlimit="10" stroke-linecap="round"/>
<path d="M201.226 147.723C201.234 147.997 201.19 148.269 201.099 148.524C201.008 148.78 200.87 149.012 200.695 149.209C200.52 149.405 200.31 149.561 200.079 149.668C199.847 149.775 199.599 149.83 199.347 149.83C199.096 149.83 198.847 149.775 198.616 149.668C198.384 149.561 198.175 149.405 197.999 149.209C197.824 149.012 197.687 148.78 197.596 148.524C197.504 148.269 197.461 147.997 197.468 147.723" stroke="#3B4765" stroke-width="1.79893" stroke-miterlimit="10" stroke-linecap="round"/>
<path d="M214.292 161.502C216.704 162.59 220.816 163.709 225.321 161.734" stroke="#3B4765" stroke-width="1.79893" stroke-miterlimit="10" stroke-linecap="round"/>
<path d="M284.194 94.9725L245.159 114.366L240.805 96.2727C243.06 96.5081 245.335 96.2185 247.479 95.4232L276.725 84.6513C277.446 84.3862 278.138 84.0332 278.786 83.5991L284.194 94.9725Z" fill="#FFAFB1"/>
<path d="M283.637 74.4405C283.582 76.7095 282.89 78.9057 281.654 80.7324C280.418 82.559 278.698 83.9281 276.725 84.6546L247.479 95.4232C245.335 96.2196 243.06 96.5103 240.805 96.276C233.79 95.54 227.696 89.7633 226.484 81.6844L221.399 81.1559C220.892 81.1035 220.403 80.9279 219.966 80.6422C219.53 80.3564 219.158 79.9676 218.877 79.5045C218.597 79.0414 218.415 78.5156 218.345 77.9658C218.276 77.4161 218.32 76.8563 218.475 76.3277L224.424 56.0615C225.007 51.7962 226.747 47.8185 229.42 44.6402C232.094 41.4619 235.579 39.2285 239.427 38.2273L253.525 34.5616C269.323 30.4533 283.205 43.9116 282.77 61.6096L283.637 74.4405Z" fill="#FFAFB1"/>
<path d="M275.32 69.5029C275.32 69.5029 269.655 70.8648 270.633 77.3678" stroke="#3B4765" stroke-width="3.59786" stroke-miterlimit="10" stroke-linecap="round"/>
<path d="M275.882 75.1016L271.949 71.8574" stroke="#3B4765" stroke-width="3.59786" stroke-miterlimit="10" stroke-linecap="round"/>
<path d="M229.509 70.3104C229.509 70.3104 230.626 67.8476 235.381 70.6346" stroke="#3B4765" stroke-width="3.59786" stroke-miterlimit="10" stroke-linecap="round"/>
<path d="M236.998 65.8603L229.2 64.3217C228.244 64.133 227.396 63.5381 226.842 62.6678C226.289 61.7976 226.075 60.7232 226.248 59.681L226.429 58.5866L233.659 60.0132C234.767 60.2317 235.749 60.9208 236.39 61.9289C237.032 62.9369 237.279 64.1815 237.079 65.3886L237.001 65.8561L236.998 65.8603Z" fill="#3B4765"/>
<path d="M283.516 72.3392C283.108 69.7159 281.771 67.3724 279.792 65.8136C277.814 64.2548 275.353 63.6056 272.94 64.0058L272.736 64.0399C270.433 64.422 268.35 65.7504 266.917 67.7528C265.483 69.7552 264.807 72.2797 265.026 74.8085L265.951 85.4782C265.938 87.171 265.478 88.824 264.626 90.2393C263.774 91.6545 262.566 92.7721 261.146 93.4582L236.272 105.483C235.263 105.971 234.159 106.181 233.058 106.094C231.956 106.007 230.892 105.627 229.957 104.986C229.022 104.346 228.246 103.465 227.697 102.421C227.148 101.376 226.843 100.201 226.808 98.9981L226.437 81.5125C227.003 81.4752 227.567 81.4574 228.132 81.4574C234.059 81.4584 239.833 83.5012 244.631 87.294L246.482 88.7532L254.991 85.2917C260.331 82.2713 259.807 77.4771 259.481 72.0831H259.449L257.017 69.4696C254.683 66.9623 253.089 63.7521 252.44 60.2508C251.791 56.7495 252.116 53.1165 253.373 49.8179L253.854 48.5549C251.952 50.1226 249.684 51.0775 247.309 51.3111C244.204 51.6564 241.092 50.7319 238.576 48.717C236.723 50.1727 234.545 51.0595 232.27 51.2852C225.608 51.9742 219.733 47.0876 219.147 40.3706C218.561 33.6536 223.487 27.6468 230.153 26.9561C233.259 26.6109 236.371 27.5354 238.887 29.5501C240.74 28.0945 242.918 27.2076 245.193 26.982C248.792 26.6091 252.164 27.8656 254.594 30.1597C256.587 28.3304 259.047 27.2127 261.641 26.9577C267.825 26.3092 273.331 30.4824 274.558 36.4552L277.151 31.2882C277.258 31.0943 277.43 30.9532 277.631 30.8942C277.831 30.8353 278.045 30.8631 278.228 30.9719C278.41 31.0807 278.547 31.262 278.609 31.478C278.672 31.694 278.655 31.928 278.564 32.1312L275.637 37.9679C277.884 39.1072 279.791 40.9151 281.139 43.1835C282.486 45.4519 283.218 48.0887 283.251 50.7907L283.516 72.3392Z" fill="#3B4765"/>
<path d="M226.602 89.514C226.602 89.514 229.892 89.4395 232.684 86.4741" stroke="white" stroke-width="2.87962" stroke-linejoin="round"/>
<path d="M293.34 214.447L226.065 214.439L230.79 170.954C231.224 168.813 232.258 167.11 234.2 166.535L236.086 165.975C235.061 165.55 234.179 164.795 233.555 163.811C232.932 162.826 232.598 161.659 232.597 160.463C232.597 160.032 232.64 159.603 232.725 159.182L239.146 127.567C239.67 124.935 241.025 122.587 242.974 120.931C243.332 116.855 245.284 112.455 248.328 110.094L279.203 86.6927C282.679 83.9949 286.843 85.1201 289.019 89.1247L293.408 104.352C296.558 106.206 299.277 108.821 301.357 111.996C303.438 115.172 304.826 118.823 305.414 122.672L314.486 186.139C316.319 198.375 304.7 214.449 293.34 214.447Z" fill="#F29334"/>
<path d="M271.184 103.866C285.445 95.3735 303.363 104.719 306.086 122.186" stroke="white" stroke-width="2.87962" stroke-linejoin="round"/>
<path d="M254.292 145.058H241.35C239.961 145.058 238.835 146.286 238.835 147.8V155.704C238.835 157.218 239.961 158.445 241.35 158.445H254.292C255.681 158.445 256.807 157.218 256.807 155.704V147.8C256.807 146.286 255.681 145.058 254.292 145.058Z" fill="white"/>
<path d="M247.104 142.412V147.43" stroke="#3B4765" stroke-width="2.70006" stroke-miterlimit="10"/>
<path d="M252.429 149.489H241.933V151.504H252.429V149.489Z" fill="#FFC184"/>
<path d="M247.82 152.734H241.856V154.75H247.82V152.734Z" fill="#FFC184"/>
<path d="M233.972 165.79H240.958" stroke="white" stroke-width="2.87962" stroke-linecap="round" stroke-linejoin="round"/>
<path d="M291.879 214.457H201.627L200.942 188.239L266.864 175.593L260.55 141.402C259.926 138.107 259.982 134.702 260.714 131.434C261.446 128.166 262.836 125.116 264.784 122.506C266.731 119.896 269.187 117.791 271.973 116.344C274.759 114.897 277.806 114.144 280.892 114.14C289.948 114.14 298.392 120.657 300.941 130.831L313.894 183.127C317.807 198.919 306.89 214.457 291.879 214.457Z" fill="#F23434"/>
<path d="M277.193 174.839L268.255 174.888L274.145 170.841" stroke="white" stroke-width="2.70006" stroke-miterlimit="10" stroke-linecap="round"/>
<path d="M169.487 214.121C167.434 214.109 165.46 213.252 163.96 211.724C158.484 206.146 149.74 197.892 147.343 195.316C147.257 195.224 147.19 195.112 147.148 194.989C147.106 194.866 147.089 194.735 147.098 194.604C147.107 194.473 147.142 194.346 147.2 194.231C147.259 194.116 147.34 194.017 147.438 193.94L147.484 193.902C148.444 193.142 149.616 192.768 150.8 192.842C150.47 192.39 150.18 191.996 149.939 191.671C149.863 191.569 149.809 191.451 149.779 191.323C149.75 191.196 149.746 191.063 149.769 190.934C149.791 190.805 149.84 190.683 149.91 190.576C149.98 190.469 150.071 190.381 150.176 190.316L150.225 190.285C151.105 189.741 152.113 189.491 153.123 189.568C154.133 189.644 155.099 190.044 155.902 190.717L165.208 198.072C165.724 198.506 166.372 198.709 167.021 198.64L179.96 197.018C180.063 197.007 180.159 196.955 180.229 196.873C180.299 196.79 180.34 196.683 180.343 196.57C180.346 196.458 180.311 196.348 180.245 196.261C180.179 196.174 180.086 196.117 179.984 196.099C177.27 195.603 173.424 194.609 170.858 194.11C170.037 193.949 169.271 193.548 168.643 192.95C168.014 192.352 167.546 191.58 167.289 190.715L167.028 188.993L183.372 186.005C188.804 185.063 196.666 183.573 200.945 188.231C202.862 189.882 205.109 194.849 205.369 200.762C205.57 205.323 204.864 209.397 203.62 211.882C202.849 213.424 201.871 214.355 200.777 214.412H200.765L169.487 214.121Z" fill="#FFAFB1"/>
<path d="M150.368 191.659C150.555 191.494 150.771 191.372 151.002 191.298C151.233 191.224 151.475 191.201 151.714 191.229C151.953 191.257 152.185 191.336 152.396 191.462C152.607 191.588 152.794 191.758 152.944 191.963C153.095 192.167 153.208 192.402 153.275 192.654C153.343 192.905 153.365 193.169 153.339 193.43C153.313 193.691 153.24 193.944 153.124 194.174C153.009 194.404 152.853 194.607 152.666 194.772" stroke="#3B4765" stroke-width="1.79893" stroke-miterlimit="10" stroke-linecap="round"/>
<path d="M171.077 188.659C171.153 189.182 171.035 189.717 170.749 190.146C170.464 190.574 170.033 190.862 169.553 190.944C169.073 191.027 168.583 190.899 168.19 190.587C167.796 190.276 167.533 189.807 167.457 189.283" stroke="#3B4765" stroke-width="1.79893" stroke-miterlimit="10" stroke-linecap="round"/>
<path d="M147.747 195.106C148.091 194.746 148.551 194.545 149.028 194.548C149.506 194.551 149.963 194.757 150.304 195.123C150.644 195.488 150.84 195.983 150.851 196.504C150.861 197.024 150.685 197.528 150.36 197.91" stroke="#3B4765" stroke-width="1.79893" stroke-miterlimit="10" stroke-linecap="round"/>
<path d="M152.666 194.771L160.865 206.769" stroke="#3B4765" stroke-width="1.79893" stroke-miterlimit="10" stroke-linecap="round"/>
<path d="M78.5155 79.1522C74.8761 79.1522 71.497 78.4356 68.7083 77.2067C70.5183 80.0277 71.5475 83.2768 71.5475 86.7334C71.5475 94.1038 66.864 100.526 59.9332 103.89C59.7132 106.851 58.8601 109.716 57.4422 112.253C56.0243 114.791 54.081 116.931 51.7679 118.503L50.3833 119.441L40.9969 105.174L40.2116 103.979C38.64 101.61 37.4611 98.9591 36.7284 96.1466C33.7419 84.5949 39.0396 72.1953 48.7978 67.0704C51.8987 65.4526 55.2953 64.6212 58.733 64.6384H73.4126C76.9509 64.6372 80.4203 65.7043 83.4362 67.7213C86.4521 69.7382 88.8966 72.6263 90.4987 76.0653C87.3858 77.9833 83.1648 79.1522 78.5155 79.1522Z" fill="#3B4765"/>
<path d="M95.8577 107.698L92.5722 109.73V120.156C92.573 121.06 92.4104 121.955 92.0938 122.789C91.7772 123.624 91.3127 124.383 90.7269 125.022C90.1411 125.662 89.4455 126.169 88.6798 126.515C87.9141 126.861 87.0934 127.039 86.2646 127.039H78.9173C77.8782 127.038 76.8673 127.408 76.0388 128.092C75.2102 128.775 74.6093 129.736 74.3275 130.826L72.0445 139.649H42.0264L50.385 119.449L51.7682 118.511C53.482 117.345 54.9972 115.864 56.2464 114.133H55.296C53.9706 114.133 52.6695 113.744 51.5297 113.007C50.3898 112.269 49.4531 111.211 48.8181 109.943C48.183 108.674 47.873 107.243 47.9207 105.799C47.9684 104.355 48.3719 102.952 49.0889 101.737C49.8059 100.521 50.8099 99.539 51.9955 98.8928C53.181 98.2466 54.5043 97.9604 55.8264 98.0642C57.1484 98.1681 58.4204 98.6582 59.5087 99.483C60.597 100.308 61.4615 101.437 62.0112 102.752C67.7834 99.1848 71.5478 93.3482 71.5478 86.7366C71.5478 83.28 70.5185 80.0309 68.7085 77.2099C71.4972 78.4372 74.8763 79.1554 78.5172 79.1554C83.1651 79.1554 87.386 77.9865 90.5004 76.075C91.867 79.005 92.5771 82.2465 92.5722 85.5336V96.0071C92.573 97.8638 93.1152 99.6721 94.1205 101.171L96.457 104.652C96.6164 104.889 96.7279 105.161 96.7843 105.449C96.8406 105.736 96.8404 106.034 96.7838 106.321C96.7272 106.609 96.6154 106.881 96.4558 107.118C96.2962 107.355 96.0924 107.553 95.8577 107.698Z" fill="#FFAFB1"/>
<path d="M85.076 102.547C85.8538 102.547 86.4844 101.762 86.4844 100.793C86.4844 99.8242 85.8538 99.0388 85.076 99.0388C84.2981 99.0388 83.6675 99.8242 83.6675 100.793C83.6675 101.762 84.2981 102.547 85.076 102.547Z" fill="#3B4765"/>
<path d="M92.5723 113.937C92.5723 113.937 89.9115 114.015 87.7847 111.119" stroke="#3B4765" stroke-width="3.59786" stroke-miterlimit="10"/>
<path d="M83.5099 94.3495C85.6456 93.3066 87.1474 91.9027 86.8644 91.2139C86.5813 90.525 84.6205 90.812 82.4847 91.8549C80.349 92.8977 78.8472 94.3016 79.1302 94.9905C79.4133 95.6794 81.3741 95.3924 83.5099 94.3495Z" fill="#3B4765"/>
<path d="M59.2663 106.735C59.2663 106.735 58.5435 101.813 53.6592 102.769" stroke="#3B4765" stroke-width="3.59786" stroke-miterlimit="10" stroke-linecap="round"/>
<path d="M55.0967 106.787L57.1729 103.436" stroke="#3B4765" stroke-width="3.59786" stroke-miterlimit="10" stroke-linecap="round"/>
<path d="M81.0154 127.038H77.3879C74.9739 127.039 72.6353 126.122 70.7753 124.444L69.6152 123.397L73.2651 134.934L74.1366 131.68C74.4914 130.348 75.2316 129.176 76.2468 128.34C77.262 127.503 78.498 127.047 79.7705 127.038H81.0154Z" fill="#3B4765"/>
<path d="M99.4629 170.549L107.032 154.811C110.061 149.112 111.3 145.108 115.524 142.327L132.555 131.079C132.656 131.011 132.77 130.967 132.888 130.952C133.006 130.936 133.126 130.948 133.239 130.988C133.352 131.028 133.456 131.094 133.543 131.182C133.631 131.27 133.7 131.377 133.745 131.497L133.781 131.588C134.025 132.219 134.111 132.909 134.029 133.588C133.948 134.267 133.703 134.91 133.318 135.451L130.405 140.028C130.216 140.324 130.106 140.67 130.086 141.029C130.065 141.388 130.136 141.746 130.289 142.064C130.442 142.383 130.673 142.649 130.955 142.835C131.238 143.02 131.562 143.118 131.892 143.117L155.028 142.99C155.385 142.968 155.736 143.094 156.01 143.343C156.285 143.592 156.462 143.945 156.507 144.331V144.368C156.555 144.771 156.459 145.178 156.24 145.506C156.021 145.835 155.695 146.059 155.329 146.132L149.511 147.305L157.966 146.656C158.38 146.625 158.789 146.771 159.106 147.062C159.423 147.353 159.625 147.767 159.667 148.217V148.259C159.714 148.715 159.598 149.172 159.344 149.536C159.09 149.901 158.717 150.145 158.302 150.218L149.955 151.729L156.212 151.385C156.569 151.364 156.92 151.49 157.195 151.738C157.471 151.986 157.651 152.337 157.7 152.723V152.759C157.75 153.144 157.669 153.537 157.472 153.862C157.274 154.187 156.974 154.421 156.629 154.521L146.258 157.519C146.182 157.541 146.115 157.59 146.068 157.66C146.022 157.729 145.999 157.814 146.003 157.9C146.008 157.986 146.039 158.067 146.092 158.131C146.145 158.194 146.217 158.236 146.295 158.248L153.422 159.409C154.554 159.594 154.526 161.382 153.391 161.517L124.686 163.801C124.208 163.839 123.751 164.031 123.373 164.351C122.995 164.672 122.713 165.108 122.562 165.604L118.74 178.2L99.4629 170.549Z" fill="#FFAFB1"/>
<path d="M151.729 147.207L144.48 148.089" stroke="#3B4765" stroke-width="1.79893" stroke-miterlimit="10" stroke-linecap="round"/>
<path d="M151.363 151.686L145.258 152.503" stroke="#3B4765" stroke-width="1.79893" stroke-miterlimit="10" stroke-linecap="round"/>
<path d="M155.999 145.092C156.261 144.659 156.151 144.077 155.754 143.791C155.357 143.506 154.823 143.625 154.561 144.058C154.299 144.491 154.409 145.073 154.806 145.359C155.203 145.644 155.737 145.525 155.999 145.092Z" stroke="#3B4765" stroke-width="1.79893" stroke-miterlimit="10" stroke-linecap="round"/>
<path d="M157.393 153.229C157.352 153.409 157.263 153.573 157.136 153.698C157.01 153.823 156.853 153.904 156.684 153.932C156.515 153.959 156.343 153.931 156.188 153.852C156.034 153.772 155.905 153.644 155.818 153.484C155.73 153.325 155.688 153.14 155.697 152.955C155.706 152.769 155.765 152.59 155.867 152.441C155.969 152.292 156.11 152.18 156.271 152.118C156.432 152.056 156.606 152.048 156.771 152.094C156.991 152.155 157.18 152.309 157.297 152.522C157.413 152.734 157.448 152.989 157.393 153.229V153.229Z" stroke="#3B4765" stroke-width="1.79893" stroke-miterlimit="10" stroke-linecap="round"/>
<path d="M154.088 160.512C154.107 160.063 153.788 159.683 153.376 159.663C152.964 159.643 152.615 159.99 152.596 160.439C152.578 160.888 152.897 161.269 153.309 161.289C153.721 161.309 154.07 160.961 154.088 160.512Z" stroke="#3B4765" stroke-width="1.43981" stroke-miterlimit="10" stroke-linecap="round"/>
<path d="M159.337 148.657C159.288 148.867 159.183 149.056 159.035 149.201C158.888 149.345 158.704 149.439 158.508 149.47C158.311 149.501 158.111 149.468 157.932 149.374C157.752 149.281 157.603 149.132 157.501 148.946C157.4 148.76 157.351 148.545 157.362 148.329C157.372 148.113 157.441 147.905 157.56 147.732C157.679 147.559 157.842 147.427 158.029 147.355C158.216 147.283 158.419 147.273 158.611 147.326C158.739 147.362 158.859 147.424 158.965 147.51C159.071 147.596 159.16 147.704 159.227 147.828C159.295 147.951 159.339 148.088 159.358 148.231C159.377 148.373 159.37 148.518 159.337 148.657V148.657Z" stroke="#3B4765" stroke-width="1.79893" stroke-miterlimit="10" stroke-linecap="round"/>
<path d="M132.946 131.146C133.123 131.525 133.166 131.963 133.065 132.375C132.964 132.787 132.727 133.143 132.399 133.376C132.071 133.608 131.676 133.7 131.29 133.634C130.904 133.567 130.553 133.348 130.307 133.016" stroke="#3B4765" stroke-width="1.79893" stroke-miterlimit="10" stroke-linecap="round"/>
<path d="M121.569 174.867L120.741 178.743L118.528 178.179L112.711 197.507C111.228 202.436 108.354 206.729 104.499 209.772C100.645 212.816 96.0072 214.454 91.2479 214.454H46.2125C34.6116 214.454 26.1206 202.529 29 190.277L39.9718 143.615C42.5106 135.885 49.788 131.734 57.1293 131.734C60.7662 131.734 64.3264 132.873 67.3855 135.018C70.4445 137.162 72.8732 140.22 74.3819 143.827L91.8309 185.567L98.2159 173.002L96.4594 172.555L99.9843 164.389L121.569 174.867Z" fill="#F23434"/>
<path d="M82.4855 214.439C79.7451 214.439 77.0449 213.721 74.612 212.346C72.179 210.972 70.0846 208.98 68.5049 206.539L52.5908 181.958" stroke="white" stroke-width="2.70006" stroke-miterlimit="10" stroke-linecap="round"/>
<path d="M91.8304 185.16L87.2822 193.494" stroke="white" stroke-width="2.70006" stroke-miterlimit="10" stroke-linecap="round"/>
<path d="M118.527 178.182L106.184 175.035L117.895 180.284L118.527 178.182Z" fill="white"/>
</g>
</svg>
