<!-- Generated by IcoMoon.io -->
<svg version="1.1" xmlns="http://www.w3.org/2000/svg" width="32" height="32" viewBox="0 0 32 32">
<title>category</title>
<path d="M6.053 2.667h4.507c1.88 0 3.387 1.533 3.387 3.415v4.545c0 1.893-1.507 3.413-3.387 3.413h-4.507c-1.867 0-3.387-1.52-3.387-3.413v-4.545c0-1.881 1.52-3.415 3.387-3.415zM6.053 17.96h4.507c1.88 0 3.387 1.521 3.387 3.415v4.545c0 1.88-1.507 3.413-3.387 3.413h-4.507c-1.867 0-3.387-1.533-3.387-3.413v-4.545c0-1.893 1.52-3.415 3.387-3.415zM25.947 2.667h-4.507c-1.88 0-3.387 1.533-3.387 3.415v4.545c0 1.893 1.507 3.413 3.387 3.413h4.507c1.867 0 3.387-1.52 3.387-3.413v-4.545c0-1.881-1.52-3.415-3.387-3.415zM21.44 17.96h4.507c1.867 0 3.387 1.521 3.387 3.415v4.545c0 1.88-1.52 3.413-3.387 3.413h-4.507c-1.88 0-3.387-1.533-3.387-3.413v-4.545c0-1.893 1.507-3.415 3.387-3.415z"></path>
</svg>
