<!-- Generated by IcoMoon.io -->
<svg version="1.1" xmlns="http://www.w3.org/2000/svg" width="32" height="32" viewBox="0 0 32 32">
<title>child</title>
<path d="M11.867 9.156c0.008 0.332-0.051 0.662-0.173 0.97s-0.304 0.59-0.536 0.827c-0.232 0.237-0.509 0.426-0.815 0.555s-0.634 0.195-0.966 0.195-0.66-0.066-0.966-0.195c-0.306-0.129-0.583-0.317-0.815-0.555s-0.414-0.518-0.536-0.827c-0.122-0.309-0.18-0.639-0.173-0.97 0.011-0.653 0.278-1.276 0.743-1.734s1.093-0.715 1.746-0.715c0.653 0 1.28 0.257 1.746 0.715s0.732 1.081 0.743 1.734h-0.001z"></path>
<path d="M6.464 17.33c-0.187 0.3-0.486 0.513-0.831 0.593s-0.707 0.019-1.006-0.169c-0.3-0.187-0.513-0.486-0.593-0.831s-0.019-0.707 0.169-1.006l0.003-0.004 0.005-0.007 0.016-0.025c0.085-0.133 0.171-0.265 0.261-0.395 0.17-0.25 0.409-0.589 0.681-0.933 0.266-0.336 0.593-0.715 0.938-1.023 0.173-0.154 0.381-0.318 0.616-0.45 0.221-0.124 0.567-0.277 0.991-0.277h3.331c0.423 0 0.769 0.153 0.991 0.277 0.235 0.132 0.443 0.296 0.615 0.45 0.345 0.308 0.673 0.687 0.938 1.024 0.336 0.427 0.65 0.87 0.942 1.328l0.017 0.025 0.005 0.007 0.002 0.004c0 0-0.023-0.036 0 0 0.182 0.3 0.239 0.659 0.158 1s-0.293 0.637-0.59 0.823c-0.297 0.186-0.656 0.247-0.998 0.171s-0.64-0.285-0.83-0.58l-0.002-0.003-0.011-0.017c-0.033-0.053-0.067-0.105-0.101-0.157v1.656l0.482 5.063c0.030 0.345-0.075 0.689-0.293 0.957s-0.533 0.442-0.877 0.483-0.691-0.053-0.966-0.264c-0.275-0.21-0.459-0.519-0.51-0.862l-0.681-4.76-0.68 4.76c-0.049 0.345-0.231 0.658-0.507 0.87s-0.625 0.309-0.971 0.267c-0.346-0.041-0.662-0.216-0.881-0.488s-0.322-0.618-0.288-0.965l0.56-5.873h0.012v-0.847c-0.034 0.052-0.068 0.105-0.102 0.157l-0.010 0.017-0.002 0.003z"></path>
<path d="M25.2 9.155c0 0.66-0.262 1.293-0.729 1.76s-1.1 0.729-1.76 0.729c-0.66 0-1.293-0.262-1.76-0.729s-0.729-1.1-0.729-1.76 0.262-1.293 0.729-1.76c0.467-0.467 1.1-0.729 1.76-0.729s1.293 0.262 1.76 0.729c0.467 0.467 0.729 1.1 0.729 1.76z"></path>
<path d="M19.801 17.19c-0.189 0.295-0.486 0.504-0.827 0.581s-0.7 0.018-0.997-0.166c-0.298-0.184-0.511-0.478-0.594-0.818s-0.029-0.699 0.151-1l0.002-0.004 0.005-0.007 0.015-0.025 0.057-0.089c0.273-0.426 0.566-0.839 0.875-1.239 0.263-0.336 0.587-0.716 0.928-1.025 0.171-0.154 0.378-0.319 0.612-0.451 0.22-0.125 0.567-0.281 0.992-0.281h3.295c0.425 0 0.772 0.155 0.993 0.28 0.233 0.133 0.44 0.298 0.611 0.452 0.342 0.309 0.665 0.689 0.928 1.025 0.332 0.427 0.643 0.87 0.932 1.327l0.016 0.026 0.007 0.011c0.186 0.301 0.245 0.663 0.164 1.007s-0.296 0.642-0.596 0.828c-0.301 0.186-0.663 0.245-1.007 0.164s-0.642-0.296-0.828-0.596l-0.002-0.003-0.010-0.017c-0.1-0.158-0.204-0.314-0.31-0.468 0.312 1.553 0.927 3.684 1.248 4.761 0.027 0.087 0.035 0.18 0.024 0.27s-0.040 0.179-0.086 0.258c-0.046 0.079-0.108 0.148-0.182 0.201s-0.159 0.091-0.248 0.111c-2.358 0.491-4.009 0.479-6.569-0.009-0.092-0.018-0.179-0.055-0.256-0.109s-0.141-0.124-0.189-0.204c-0.048-0.081-0.078-0.17-0.089-0.263s-0.002-0.187 0.026-0.277c0.337-1.083 0.963-3.191 1.259-4.779-0.116 0.167-0.228 0.337-0.337 0.508l-0.010 0.017-0.002 0.003z"></path>
<path d="M19.733 23.435v0.899c0 0.242 0.088 0.476 0.248 0.659s0.38 0.3 0.62 0.332c0.24 0.032 0.484-0.025 0.686-0.159s0.348-0.337 0.411-0.571l0.263-0.976c-0.745-0.026-1.489-0.087-2.229-0.183zM23.503 23.615l0.265 0.979c0.063 0.234 0.209 0.437 0.411 0.571s0.445 0.191 0.686 0.159c0.24-0.032 0.461-0.15 0.62-0.332s0.248-0.416 0.248-0.659v-0.908c-0.74 0.096-1.484 0.159-2.23 0.189v0.001z"></path>
</svg>
