<!-- Generated by IcoMoon.io -->
<svg version="1.1" xmlns="http://www.w3.org/2000/svg" width="32" height="32" viewBox="0 0 32 32">
<title>donasico</title>
<path d="M20.21 17.303v0.831c0 0.771-0.287 1.511-0.797 2.056s-1.202 0.852-1.923 0.852h-0.389v0.415h1.943v2.908c0 0.22-0.082 0.432-0.228 0.587s-0.343 0.243-0.549 0.243h-3.108c-0.206 0-0.404-0.087-0.549-0.243s-0.228-0.367-0.228-0.587v-2.908h1.943v-1.246c0-0.771 0.287-1.511 0.797-2.056s1.202-0.852 1.923-0.852h1.166zM14.188 16.888c0.466-0.001 0.926 0.119 1.34 0.348s0.771 0.561 1.039 0.968c-0.411 0.577-0.632 1.282-0.631 2.007v0.415h-0.194c-0.773 0-1.514-0.328-2.060-0.913s-0.853-1.377-0.853-2.203v-0.623h1.36z"></path>
<path d="M13.277 28.889h1.212c3.863 0 6.963-1.145 9.301-3.434 2.362-2.289 3.543-5.428 3.543-9.416 0-3.422-1.193-6.278-3.58-8.567-2.387-2.314-5.45-3.471-9.19-3.471h-8.563v24.889h5.839v-4.653h-0.007v-15.546h2.547c2.288 0 4.060 0.677 5.315 2.031 1.255 1.329 1.882 3.102 1.882 5.318 0 2.609-0.627 4.628-1.882 6.056-1.23 1.428-2.99 2.142-5.278 2.142h-1.138v4.653z"></path>
</svg>
