<!-- Generated by IcoMoon.io -->
<svg version="1.1" xmlns="http://www.w3.org/2000/svg" width="32" height="32" viewBox="0 0 32 32">
<title>earthquake</title>
<path d="M15.103 2.149c0.224-0.204 0.51-0.325 0.812-0.344s0.601 0.064 0.849 0.238l0.133 0.107 13.769 12.517h-4v12c0 0.327-0.12 0.642-0.337 0.886s-0.516 0.4-0.84 0.438l-0.156 0.009h-8.667l3.333-5.333-4.667-4 5.333-4-3.333-2.667 0.667-4-4 4 3.333 2.667-6.667 4 5 4.667-4.333 4.667h-4.667c-0.327 0-0.642-0.12-0.886-0.337s-0.4-0.516-0.438-0.84l-0.009-0.156v-12h-4l13.769-12.517z"></path>
</svg>
