<svg width="4" height="4" viewBox="0 0 4 4" fill="none" xmlns="http://www.w3.org/2000/svg">
<path fill-rule="evenodd" clip-rule="evenodd" d="M1.68753 3.97573V2.57826H1.17958V2H1.68753V1.55928C1.68753 1.0578 1.98622 0.781043 2.44298 0.781043C2.66179 0.781043 2.89073 0.820137 2.89073 0.820137V1.31233H2.63845C2.38982 1.31233 2.31247 1.46674 2.31247 1.62481V2H2.86711L2.77851 2.57826H2.31247V3.97573C3.26862 3.82571 4 2.99827 4 2C4 0.895429 3.10457 0 2 0C0.89543 0 0 0.895429 0 2C0 2.99827 0.731379 3.82571 1.68753 3.97573ZM2.05484 3.99926C2.12295 3.99742 2.1902 3.99218 2.25645 3.9837C2.19021 3.99212 2.12295 3.9974 2.05484 3.99926Z" fill="white"/>
</svg>
