<!-- Generated by IcoMoon.io -->
<svg version="1.1" xmlns="http://www.w3.org/2000/svg" width="32" height="32" viewBox="0 0 32 32">
<title>hand-heart</title>
<path d="M26.667 22.667c0.764 0 1.409 0.267 1.933 0.8s0.782 1.156 0.773 1.867l-10.707 4-9.333-2.667v-12h2.6l9.693 3.587c0.693 0.276 1.040 0.773 1.040 1.493 0 0.418-0.151 0.782-0.453 1.093s-0.684 0.476-1.147 0.493h-3.733l-2.333-0.893-0.44 1.253 2.773 0.973h9.333zM21.333 4.307c0.942-1.093 2.142-1.64 3.6-1.64 1.209 0 2.231 0.444 3.067 1.333s1.28 1.911 1.333 3.067c0 0.916-0.444 2.009-1.333 3.28s-1.764 2.333-2.627 3.187c-0.862 0.853-2.209 2.12-4.040 3.8-1.849-1.68-3.209-2.947-4.080-3.8s-1.747-1.916-2.627-3.187c-0.88-1.271-1.311-2.364-1.293-3.28 0-1.209 0.431-2.231 1.293-3.067s1.902-1.28 3.12-1.333c1.422 0 2.618 0.547 3.587 1.64zM1.312 14.667h5.355v14.667h-5.355v-14.667z"></path>
</svg>
