<!-- Generated by IcoMoon.io -->
<svg version="1.1" xmlns="http://www.w3.org/2000/svg" width="32" height="32" viewBox="0 0 32 32">
<title>health</title>
<path d="M14 17.333h-1.333c-1.107 0-2-0.893-2-2s0.893-2 2-2h1.333v-1.333c0-1.107 0.893-2 2-2s2 0.893 2 2v1.333h1.333c1.107 0 2 0.893 2 2s-0.893 2-2 2h-1.333v1.333c0 1.107-0.893 2-2 2s-2-0.893-2-2v-1.333zM15.067 3.013l-8 3c-1.040 0.4-1.733 1.387-1.733 2.507v6.267c0 6.733 4.547 13.013 10.667 14.547 6.12-1.533 10.667-7.813 10.667-14.547v-6.267c-0.001-0.543-0.167-1.072-0.477-1.517s-0.748-0.786-1.256-0.976l-8-3c-0.6-0.24-1.267-0.24-1.867-0.013z"></path>
</svg>
