<!-- Generated by IcoMoon.io -->
<svg version="1.1" xmlns="http://www.w3.org/2000/svg" width="32" height="32" viewBox="0 0 32 32">
<title>mosque</title>
<path d="M9.333 10.667h13.333c0.387 0 0.76 0.080 1.12 0.173 0.12-0.44 0.213-0.893 0.213-1.387 0-1.747-0.867-3.373-2.32-4.333l-5.68-3.787-5.68 3.787c-0.715 0.474-1.301 1.118-1.706 1.874s-0.616 1.601-0.614 2.459c0 0.493 0.093 0.947 0.213 1.387 0.36-0.093 0.733-0.173 1.12-0.173z"></path>
<path d="M32 9.333c0-1.467-2.667-4-2.667-4s-2.667 2.533-2.667 4c0 0.987 0.533 1.84 1.333 2.293v5.707h-2.667v-2.667c0-1.467-1.2-2.667-2.667-2.667h-13.333c-1.467 0-2.667 1.2-2.667 2.667v2.667h-2.667v-5.707c0.8-0.453 1.333-1.307 1.333-2.293 0-1.467-2.667-4-2.667-4s-2.667 2.533-2.667 4c0 0.987 0.533 1.84 1.333 2.293v16.373h12v-5.333c0-1.467 1.2-2.667 2.667-2.667s2.667 1.2 2.667 2.667v5.333h12v-16.373c0.8-0.453 1.333-1.307 1.333-2.293z"></path>
</svg>
