<!-- Generated by IcoMoon.io -->
<svg version="1.1" xmlns="http://www.w3.org/2000/svg" width="32" height="32" viewBox="0 0 32 32">
<title>graduation</title>
<path d="M6.667 23.667v-5.021l5.413 3.537c1.166 0.762 2.528 1.167 3.92 1.167s2.754-0.405 3.92-1.167l5.413-3.537v5.021c0 0.216-0.070 0.427-0.2 0.6l-0.001 0.001-0.001 0.003-0.004 0.005-0.012 0.013-0.016 0.021-0.017 0.023-0.115 0.135c-0.135 0.153-0.276 0.299-0.423 0.44-0.369 0.356-0.92 0.819-1.667 1.277-1.495 0.92-3.759 1.815-6.877 1.815s-5.381-0.893-6.879-1.815c-0.599-0.365-1.158-0.793-1.667-1.276-0.202-0.195-0.392-0.401-0.569-0.619l-0.012-0.013-0.004-0.007v-0.003c-0.131-0.173-0.202-0.384-0.203-0.601z"></path>
<path d="M29.547 13.504l-10.72 7.004c-0.84 0.549-1.823 0.842-2.827 0.842s-1.986-0.293-2.827-0.842l-9.173-5.993v7.152c0 0.265-0.105 0.52-0.293 0.707s-0.442 0.293-0.707 0.293-0.52-0.105-0.707-0.293c-0.188-0.187-0.293-0.442-0.293-0.707v-8.333c0-0.117 0.020-0.229 0.057-0.333-0.075-0.213-0.076-0.444-0.003-0.657s0.216-0.396 0.406-0.517l10.752-6.893c0.832-0.533 1.8-0.817 2.788-0.817s1.956 0.283 2.788 0.817l10.752 6.893c0.14 0.090 0.256 0.214 0.336 0.36s0.123 0.31 0.123 0.477-0.040 0.331-0.12 0.478c-0.079 0.147-0.194 0.272-0.333 0.363z"></path>
</svg>
