<svg width="44" height="8" viewBox="0 0 44 8" fill="none" xmlns="http://www.w3.org/2000/svg">
<path d="M12.8122 5.17269C12.8122 5.99375 12.5691 6.67202 12.083 7.2075C11.6042 7.73583 10.9339 8 10.0721 8C9.1956 8 8.51795 7.74654 8.03918 7.23963C7.5604 6.72557 7.32102 6.06872 7.32102 5.26908C7.32102 4.43373 7.57145 3.74833 8.07233 3.21285C8.5732 2.67024 9.2398 2.39893 10.0721 2.39893C10.9413 2.39893 11.6153 2.65953 12.094 3.18072C12.5728 3.70192 12.8122 4.36591 12.8122 5.17269ZM9.26558 4.06961C9.0888 4.36234 9.00041 4.74074 9.00041 5.20482C9.00041 5.6689 9.0888 6.05087 9.26558 6.35074C9.44972 6.64346 9.72226 6.78983 10.0832 6.78983C10.4367 6.78983 10.6982 6.64703 10.8676 6.36145C11.0444 6.06872 11.1328 5.69032 11.1328 5.22624C11.1328 4.16243 10.7756 3.63052 10.0611 3.63052C9.70753 3.63052 9.44236 3.77689 9.26558 4.06961Z" fill="#F23434"/>
<path d="M19.1142 7.91432H17.5011V4.68005C17.5011 4.35877 17.4237 4.11602 17.269 3.95181C17.1144 3.78046 16.8971 3.69478 16.6172 3.69478C16.3225 3.69478 16.0758 3.80901 15.8769 4.03748C15.6854 4.25881 15.5896 4.59438 15.5896 5.04418V7.91432H13.9765V2.4846H15.5896V3.40562C15.7296 3.10576 15.9432 2.87015 16.2305 2.6988C16.5251 2.5203 16.875 2.43106 17.2801 2.43106C17.8546 2.43106 18.3039 2.59884 18.628 2.9344C18.9521 3.26283 19.1142 3.74833 19.1142 4.3909V7.91432Z" fill="#F23434"/>
<path d="M22.5512 6.84337C22.7795 6.84337 22.9563 6.77555 23.0815 6.63989C23.2067 6.50424 23.2693 6.31861 23.2693 6.083V5.68675H22.75C22.4775 5.68675 22.2676 5.74386 22.1203 5.8581C21.9729 5.97233 21.8993 6.1187 21.8993 6.29719C21.8993 6.66131 22.1166 6.84337 22.5512 6.84337ZM23.3467 7.25033C23.111 7.71441 22.6469 7.94645 21.9545 7.94645C21.4095 7.94645 20.9822 7.79652 20.6729 7.49665C20.3709 7.19679 20.2199 6.82196 20.2199 6.37216C20.2199 5.85096 20.4151 5.44757 20.8055 5.16198C21.2032 4.86925 21.7888 4.72289 22.5622 4.72289H23.2693V4.34806C23.2693 3.89112 22.9563 3.66265 22.3302 3.66265C21.7262 3.66265 21.1664 3.82686 20.6508 4.15529V2.75234C21.0927 2.50959 21.7299 2.38822 22.5622 2.38822C23.3577 2.38822 23.9507 2.556 24.341 2.89157C24.7314 3.21999 24.9266 3.73405 24.9266 4.43373V7.91432H23.3467V7.25033Z" fill="#F23434"/>
<path d="M30.1264 6.27577C30.1264 6.81124 29.9275 7.22535 29.5298 7.51807C29.132 7.8108 28.6054 7.95716 27.9498 7.95716C27.2722 7.95716 26.705 7.8465 26.2483 7.62517V6.23293C26.7566 6.57564 27.2943 6.74699 27.8614 6.74699C28.2665 6.74699 28.4691 6.62204 28.4691 6.37216C28.4691 6.3079 28.4507 6.24721 28.4139 6.19009C28.377 6.13298 28.3144 6.07943 28.226 6.02945C28.1376 5.97947 28.0566 5.9402 27.983 5.91165C27.9093 5.87595 27.8025 5.82954 27.6625 5.77242C27.5226 5.71531 27.4158 5.6689 27.3421 5.6332C26.5982 5.2905 26.2262 4.77644 26.2262 4.09103C26.2262 3.5627 26.4325 3.15216 26.8449 2.85944C27.2648 2.56671 27.7841 2.42035 28.4028 2.42035C28.9773 2.42035 29.4561 2.49531 29.8391 2.64525V3.98394C29.4487 3.76261 28.9921 3.65194 28.4691 3.65194C28.2776 3.65194 28.1303 3.69121 28.0271 3.76975C27.924 3.84114 27.8725 3.93396 27.8725 4.04819C27.8725 4.11245 27.8909 4.17314 27.9277 4.23025C27.9645 4.28737 28.0235 4.34092 28.1045 4.3909C28.1929 4.44087 28.2739 4.48728 28.3476 4.53012C28.4286 4.56582 28.5354 4.61223 28.668 4.66934C28.8079 4.72646 28.9184 4.77644 28.9994 4.81928C29.3383 4.99063 29.6108 5.19054 29.817 5.41901C30.0233 5.64034 30.1264 5.92593 30.1264 6.27577Z" fill="#F23434"/>
<path d="M32.8946 7.91432H31.2815V2.4846H32.8946V7.91432ZM32.751 0.267737C32.9351 0.446229 33.0272 0.660419 33.0272 0.910308C33.0272 1.1602 32.9351 1.37439 32.751 1.55288C32.5668 1.73137 32.3458 1.82062 32.088 1.82062C31.8302 1.82062 31.6093 1.73137 31.4251 1.55288C31.241 1.37439 31.1489 1.1602 31.1489 0.910308C31.1489 0.660419 31.241 0.446229 31.4251 0.267737C31.6093 0.0892458 31.8302 0 32.088 0C32.3458 0 32.5668 0.0892458 32.751 0.267737Z" fill="#F23434"/>
<path d="M4.25371 4.55423V4.7952C4.25371 5.01887 4.16793 5.23339 4.01526 5.39155C3.86258 5.54971 3.65551 5.63857 3.43959 5.63857H3.32329V5.75905H3.9048V6.60243C3.9048 6.66633 3.88029 6.72762 3.83667 6.77281C3.79305 6.818 3.73389 6.84339 3.6722 6.84339H2.74178C2.68009 6.84339 2.62093 6.818 2.57731 6.77281C2.53369 6.72762 2.50918 6.66633 2.50918 6.60243V5.75905H3.09069V5.39761C3.09069 5.17393 3.17646 4.95941 3.32914 4.80125C3.48181 4.64309 3.68889 4.55423 3.9048 4.55423H4.25371ZM2.45103 4.43375C2.59059 4.43363 2.72813 4.46826 2.85208 4.5347C2.97603 4.60114 3.08275 4.69747 3.16326 4.81556C3.04037 4.98286 2.97401 5.18738 2.97439 5.39761V5.51809H2.91624C2.6849 5.51809 2.46304 5.42289 2.29945 5.25343C2.13587 5.08396 2.04397 4.85413 2.04397 4.61447V4.43375H2.45103Z" fill="#F23434"/>
<path d="M2.17836 7.91435H2.54119C3.69762 7.91435 4.6257 7.58235 5.32545 6.91837C6.03257 6.25438 6.38612 5.34407 6.38612 4.18744C6.38612 3.19503 6.02888 2.36683 5.3144 1.70284C4.59992 1.03171 3.68289 0.696144 2.56329 0.696144H0V7.91435H1.74786V6.56495H1.74569V2.05625H2.50805C3.19306 2.05625 3.7234 2.25259 4.09905 2.64527C4.47471 3.03082 4.66253 3.54487 4.66253 4.18744C4.66253 4.94425 4.47471 5.5297 4.09905 5.9438C3.73076 6.3579 3.20411 6.56495 2.51909 6.56495H2.17836V7.91435Z" fill="#F23434"/>
<path d="M36.7967 7.02334C36.9116 7.13472 36.9691 7.26966 36.9691 7.42816C36.9691 7.58666 36.9116 7.7216 36.7967 7.83298C36.6818 7.94436 36.5426 8.00005 36.3791 8.00005C36.2155 8.00005 36.0763 7.94436 35.9614 7.83298C35.8465 7.7216 35.7891 7.58666 35.7891 7.42816C35.7891 7.26966 35.8465 7.13472 35.9614 7.02334C36.0763 6.91196 36.2155 6.85627 36.3791 6.85627C36.5426 6.85627 36.6818 6.91196 36.7967 7.02334Z" fill="#F23434"/>
<path d="M40.2095 7.79443C39.9487 7.93151 39.635 8.00005 39.2681 8.00005C38.7643 8.00005 38.3489 7.84583 38.0219 7.5374C37.6948 7.22468 37.5313 6.822 37.5313 6.32936C37.5401 5.84101 37.7037 5.43833 38.0219 5.12133C38.3401 4.80005 38.7754 4.6394 39.3278 4.6394C39.6681 4.6394 39.962 4.70152 40.2095 4.82575V5.62896C39.9753 5.4876 39.7145 5.41691 39.4273 5.41691C39.1577 5.41691 38.9389 5.49616 38.771 5.65467C38.603 5.80888 38.5168 6.03378 38.5124 6.32936C38.5301 6.61638 38.6185 6.83914 38.7776 6.99764C38.9367 7.15614 39.1466 7.23539 39.4074 7.23539C39.6858 7.23539 39.9532 7.16042 40.2095 7.01049V7.79443Z" fill="#F23434"/>
<path d="M43.9997 6.30366C43.9997 6.7963 43.8539 7.20326 43.5622 7.52455C43.2749 7.84155 42.8728 8.00005 42.3557 8.00005C41.8298 8.00005 41.4232 7.84797 41.1359 7.54382C40.8487 7.23539 40.705 6.84128 40.705 6.36149C40.705 5.86029 40.8553 5.44904 41.1558 5.12776C41.4563 4.80219 41.8563 4.6394 42.3557 4.6394C42.8772 4.6394 43.2816 4.79576 43.5688 5.10848C43.8561 5.4212 43.9997 5.81959 43.9997 6.30366ZM41.8718 5.64181C41.7657 5.81745 41.7127 6.04449 41.7127 6.32294C41.7127 6.60139 41.7657 6.83057 41.8718 7.01049C41.9823 7.18613 42.1458 7.27394 42.3623 7.27394C42.5745 7.27394 42.7314 7.18827 42.833 7.01692C42.9391 6.84128 42.9921 6.61424 42.9921 6.33579C42.9921 5.6975 42.7778 5.37836 42.3491 5.37836C42.1369 5.37836 41.9778 5.46618 41.8718 5.64181Z" fill="#F23434"/>
</svg>
